<svg width="22" height="22" viewBox="0 0 22 22" fill="none" xmlns="http://www.w3.org/2000/svg">
<path d="M15.25 10C14.5596 10 14 10.5596 14 11.25C14 11.9404 14.5596 12.5 15.25 12.5C15.9404 12.5 16.5 11.9404 16.5 11.25C16.5 10.5596 15.9404 10 15.25 10Z" fill="#697588"/>
<path d="M10.75 10C10.0596 10 9.5 10.5596 9.5 11.25C9.5 11.9404 10.0596 12.5 10.75 12.5C11.4404 12.5 12 11.9404 12 11.25C12 10.5596 11.4404 10 10.75 10Z" fill="#697588"/>
<path d="M6.25 10C5.55964 10 5 10.5596 5 11.25C5 11.9404 5.55964 12.5 6.25 12.5C6.94036 12.5 7.5 11.9404 7.5 11.25C7.5 10.5596 6.94036 10 6.25 10Z" fill="#697588"/>
</svg>
