<svg width="16" height="16" viewBox="0 0 16 16" fill="none" xmlns="http://www.w3.org/2000/svg">
<g clip-path="url(#clip0_313_13016)">
<path d="M14.6668 7.99967H13.0135C12.7221 7.99905 12.4386 8.09388 12.2062 8.26965C11.9739 8.44543 11.8055 8.69247 11.7268 8.97301L10.1602 14.5463C10.1501 14.581 10.129 14.6114 10.1002 14.633C10.0713 14.6546 10.0362 14.6663 10.0002 14.6663C9.9641 14.6663 9.92901 14.6546 9.90016 14.633C9.87131 14.6114 9.85026 14.581 9.84016 14.5463L6.16016 1.45301C6.15007 1.41839 6.12901 1.38798 6.10016 1.36634C6.07131 1.3447 6.03622 1.33301 6.00016 1.33301C5.9641 1.33301 5.92901 1.3447 5.90016 1.36634C5.87131 1.38798 5.85026 1.41839 5.84016 1.45301L4.2735 7.02634C4.19514 7.30578 4.02775 7.55202 3.79674 7.72768C3.56573 7.90335 3.28371 7.99884 2.9935 7.99967H1.3335" stroke="#697588" stroke-width="1.25" stroke-linecap="round" stroke-linejoin="round"/>
</g>
<defs>
<clipPath id="clip0_313_13016">
<rect width="16" height="16" fill="white"/>
</clipPath>
</defs>
</svg>
