<svg width="30" height="24" viewBox="0 0 30 24" fill="none" xmlns="http://www.w3.org/2000/svg">
<rect x="0.5" y="0.5" width="29" height="23" rx="5.5" fill="#F4F5F6"/>
<rect x="0.5" y="0.5" width="29" height="23" rx="5.5" stroke="#EBEBEB"/>
<path d="M8.15057 7.77273V16.5H6.82955V9.09375H6.77841L4.69034 10.4574V9.19602L6.8679 7.77273H8.15057Z" fill="#697588"/>
<path d="M14.0003 9.99967H18.0003M12.667 7.33301H15.3337M14.0003 7.33301V14.6663C14.0003 14.8432 14.0706 15.0127 14.1956 15.1377C14.3206 15.2628 14.4902 15.333 14.667 15.333H18.0003M18.0003 9.33301C18.0003 9.1562 18.0706 8.98663 18.1956 8.8616C18.3206 8.73658 18.4902 8.66634 18.667 8.66634H22.667C22.8438 8.66634 23.0134 8.73658 23.1384 8.8616C23.2634 8.98663 23.3337 9.1562 23.3337 9.33301V10.6663C23.3337 10.8432 23.2634 11.0127 23.1384 11.1377C23.0134 11.2628 22.8438 11.333 22.667 11.333H18.667C18.4902 11.333 18.3206 11.2628 18.1956 11.1377C18.0706 11.0127 18.0003 10.8432 18.0003 10.6663V9.33301ZM18.0003 14.6663C18.0003 14.4895 18.0706 14.32 18.1956 14.1949C18.3206 14.0699 18.4902 13.9997 18.667 13.9997H22.667C22.8438 13.9997 23.0134 14.0699 23.1384 14.1949C23.2634 14.32 23.3337 14.4895 23.3337 14.6663V15.9997C23.3337 16.1765 23.2634 16.3461 23.1384 16.4711C23.0134 16.5961 22.8438 16.6663 22.667 16.6663H18.667C18.4902 16.6663 18.3206 16.5961 18.1956 16.4711C18.0706 16.3461 18.0003 16.1765 18.0003 15.9997V14.6663Z" stroke="#697588" stroke-linecap="round" stroke-linejoin="round"/>
</svg>
