<svg width="205" height="161" viewBox="0 0 205 161" fill="none" xmlns="http://www.w3.org/2000/svg">
<g filter="url(#filter0_dd_1836_45154)">
<g clip-path="url(#clip0_1836_45154)">
<rect x="11" y="8" width="178" height="129" rx="12" fill="#F2F9FE"/>
<g filter="url(#filter1_f_1836_45154)">
<circle cx="44.5" cy="39.5" r="55.5" fill="#4257F6" fill-opacity="0.11"/>
</g>
<path d="M30.4226 24.8182H32.267V31.4702C32.267 32.1993 32.0947 32.8407 31.75 33.3942C31.4086 33.9477 30.928 34.3802 30.3082 34.6918C29.6884 35 28.9643 35.1541 28.1357 35.1541C27.3037 35.1541 26.5779 35 25.9581 34.6918C25.3383 34.3802 24.8577 33.9477 24.5163 33.3942C24.175 32.8407 24.0043 32.1993 24.0043 31.4702V24.8182H25.8487V31.3161C25.8487 31.7403 25.9415 32.1181 26.1271 32.4496C26.3161 32.781 26.5812 33.0412 26.9226 33.2301C27.264 33.4157 27.6683 33.5085 28.1357 33.5085C28.603 33.5085 29.0073 33.4157 29.3487 33.2301C29.6934 33.0412 29.9586 32.781 30.1442 32.4496C30.3298 32.1181 30.4226 31.7403 30.4226 31.3161V24.8182ZM33.4923 37.8636V27.3636H35.2622V28.6264H35.3666C35.4594 28.4408 35.5903 28.2436 35.7593 28.0348C35.9284 27.8227 36.1571 27.642 36.4454 27.4929C36.7338 27.3404 37.1017 27.2642 37.5491 27.2642C38.1391 27.2642 38.671 27.415 39.145 27.7166C39.6223 28.0149 40.0001 28.4574 40.2785 29.044C40.5602 29.6274 40.7011 30.3433 40.7011 31.1918C40.7011 32.0303 40.5636 32.7429 40.2885 33.3295C40.0134 33.9162 39.6388 34.3636 39.1649 34.6719C38.6909 34.9801 38.154 35.1342 37.5541 35.1342C37.1166 35.1342 36.7537 35.0613 36.4653 34.9155C36.177 34.7696 35.9449 34.594 35.7693 34.3885C35.5969 34.1797 35.4627 33.9825 35.3666 33.7969H35.292V37.8636H33.4923ZM35.2572 31.1818C35.2572 31.6757 35.3268 32.1082 35.466 32.4794C35.6085 32.8506 35.8124 33.1406 36.0775 33.3494C36.346 33.5549 36.6708 33.6577 37.052 33.6577C37.4497 33.6577 37.7828 33.5516 38.0512 33.3395C38.3197 33.1241 38.5219 32.8307 38.6578 32.4595C38.797 32.085 38.8666 31.6591 38.8666 31.1818C38.8666 30.7079 38.7986 30.2869 38.6627 29.919C38.5269 29.5511 38.3247 29.2628 38.0562 29.054C37.7877 28.8452 37.453 28.7408 37.052 28.7408C36.6675 28.7408 36.341 28.8419 36.0726 29.044C35.8041 29.2462 35.6002 29.5296 35.461 29.8942C35.3252 30.2588 35.2572 30.688 35.2572 31.1818ZM44.8633 38.0227C44.217 38.0227 43.6618 37.9349 43.1978 37.7592C42.7338 37.5869 42.3609 37.3549 42.0792 37.0632C41.7975 36.7715 41.602 36.4484 41.4926 36.0938L43.1133 35.701C43.1862 35.8501 43.2923 35.9976 43.4315 36.1435C43.5707 36.2926 43.758 36.4152 43.9933 36.5114C44.2319 36.6108 44.5319 36.6605 44.8931 36.6605C45.4036 36.6605 45.8261 36.5362 46.1609 36.2876C46.4957 36.0424 46.663 35.638 46.663 35.0746V33.6278H46.5735C46.4807 33.8134 46.3449 34.004 46.1659 34.1996C45.9902 34.3951 45.7565 34.5592 45.4649 34.6918C45.1765 34.8243 44.8136 34.8906 44.3761 34.8906C43.7895 34.8906 43.2575 34.7531 42.7802 34.478C42.3063 34.1996 41.9284 33.7853 41.6467 33.2351C41.3683 32.6816 41.2291 31.9889 41.2291 31.157C41.2291 30.3184 41.3683 29.6108 41.6467 29.0341C41.9284 28.4541 42.3079 28.0149 42.7852 27.7166C43.2625 27.415 43.7944 27.2642 44.3811 27.2642C44.8285 27.2642 45.1964 27.3404 45.4848 27.4929C45.7764 27.642 46.0084 27.8227 46.1808 28.0348C46.3531 28.2436 46.4841 28.4408 46.5735 28.6264H46.673V27.3636H48.4478V35.1243C48.4478 35.7772 48.2921 36.3175 47.9805 36.745C47.669 37.1726 47.2431 37.4924 46.7028 37.7045C46.1626 37.9167 45.5494 38.0227 44.8633 38.0227ZM44.8782 33.4787C45.2594 33.4787 45.5842 33.3859 45.8527 33.2003C46.1211 33.0147 46.325 32.7479 46.4642 32.3999C46.6034 32.0518 46.673 31.6342 46.673 31.147C46.673 30.6664 46.6034 30.2455 46.4642 29.8842C46.3283 29.523 46.1261 29.2429 45.8576 29.044C45.5925 28.8419 45.266 28.7408 44.8782 28.7408C44.4772 28.7408 44.1424 28.8452 43.874 29.054C43.6055 29.2628 43.4033 29.5495 43.2674 29.9141C43.1315 30.2753 43.0636 30.6863 43.0636 31.147C43.0636 31.6143 43.1315 32.0237 43.2674 32.375C43.4066 32.723 43.6105 32.9948 43.8789 33.1903C44.1507 33.3826 44.4838 33.4787 44.8782 33.4787ZM49.5923 35V27.3636H51.3373V28.6364H51.4169C51.5561 28.1955 51.7947 27.8558 52.1328 27.6172C52.4742 27.3752 52.8636 27.2543 53.3011 27.2543C53.4005 27.2543 53.5116 27.2592 53.6342 27.2692C53.7601 27.2758 53.8645 27.2874 53.9474 27.304V28.9595C53.8712 28.933 53.7502 28.9098 53.5845 28.8899C53.4221 28.8667 53.2646 28.8551 53.1122 28.8551C52.7841 28.8551 52.4891 28.9264 52.2272 29.0689C51.9687 29.2081 51.7649 29.402 51.6157 29.6506C51.4666 29.8991 51.392 30.1858 51.392 30.5107V35H49.5923ZM56.5038 35.1541C56.0199 35.1541 55.5841 35.0679 55.1963 34.8956C54.8118 34.7199 54.5069 34.4614 54.2815 34.12C54.0594 33.7786 53.9484 33.3577 53.9484 32.8572C53.9484 32.4264 54.0279 32.0701 54.187 31.7884C54.3461 31.5066 54.5632 31.2812 54.8383 31.1122C55.1134 30.9432 55.4233 30.8156 55.768 30.7294C56.116 30.6399 56.4756 30.5753 56.8468 30.5355C57.2943 30.4891 57.6572 30.4477 57.9356 30.4112C58.214 30.3714 58.4162 30.3118 58.5422 30.2322C58.6714 30.1494 58.736 30.0218 58.736 29.8494V29.8196C58.736 29.4451 58.625 29.1551 58.4029 28.9496C58.1809 28.7441 57.861 28.6413 57.4434 28.6413C57.0026 28.6413 56.6529 28.7375 56.3944 28.9297C56.1392 29.1219 55.9669 29.349 55.8774 29.6108L54.197 29.3722C54.3296 28.9081 54.5483 28.5204 54.8532 28.2088C55.1582 27.8939 55.531 27.6586 55.9718 27.5028C56.4127 27.3438 56.8999 27.2642 57.4335 27.2642C57.8014 27.2642 58.1676 27.3073 58.5322 27.3935C58.8968 27.4796 59.2299 27.6222 59.5315 27.821C59.8331 28.0166 60.0751 28.2834 60.2574 28.6214C60.443 28.9595 60.5358 29.3821 60.5358 29.8892V35H58.8056V33.951H58.746C58.6366 34.1631 58.4825 34.362 58.2836 34.5476C58.0881 34.7299 57.8412 34.8774 57.5429 34.9901C57.2479 35.0994 56.9015 35.1541 56.5038 35.1541ZM56.9711 33.8317C57.3324 33.8317 57.6456 33.7604 57.9108 33.6179C58.1759 33.4721 58.3797 33.2798 58.5223 33.0412C58.6681 32.8026 58.741 32.5424 58.741 32.2607V31.3608C58.6847 31.4072 58.5886 31.4503 58.4527 31.4901C58.3201 31.5298 58.1709 31.5646 58.0052 31.5945C57.8395 31.6243 57.6754 31.6508 57.513 31.674C57.3506 31.6972 57.2098 31.7171 57.0904 31.7337C56.822 31.7701 56.5817 31.8298 56.3696 31.9126C56.1574 31.9955 55.9901 32.1115 55.8674 32.2607C55.7448 32.4065 55.6835 32.5954 55.6835 32.8274C55.6835 33.1589 55.8045 33.4091 56.0464 33.5781C56.2884 33.7472 56.5966 33.8317 56.9711 33.8317ZM64.4792 35.1342C63.8793 35.1342 63.3424 34.9801 62.8684 34.6719C62.3945 34.3636 62.0199 33.9162 61.7449 33.3295C61.4698 32.7429 61.3322 32.0303 61.3322 31.1918C61.3322 30.3433 61.4714 29.6274 61.7498 29.044C62.0315 28.4574 62.411 28.0149 62.8883 27.7166C63.3656 27.415 63.8975 27.2642 64.4842 27.2642C64.9316 27.2642 65.2995 27.3404 65.5879 27.4929C65.8762 27.642 66.1049 27.8227 66.274 28.0348C66.443 28.2436 66.5739 28.4408 66.6667 28.6264H66.7413V24.8182H68.546V35H66.7761V33.7969H66.6667C66.5739 33.9825 66.4397 34.1797 66.264 34.3885C66.0884 34.594 65.8564 34.7696 65.568 34.9155C65.2797 35.0613 64.9167 35.1342 64.4792 35.1342ZM64.9814 33.6577C65.3625 33.6577 65.6873 33.5549 65.9558 33.3494C66.2243 33.1406 66.4281 32.8506 66.5673 32.4794C66.7065 32.1082 66.7761 31.6757 66.7761 31.1818C66.7761 30.688 66.7065 30.2588 66.5673 29.8942C66.4314 29.5296 66.2292 29.2462 65.9608 29.044C65.6956 28.8419 65.3691 28.7408 64.9814 28.7408C64.5803 28.7408 64.2456 28.8452 63.9771 29.054C63.7086 29.2628 63.5065 29.5511 63.3706 29.919C63.2347 30.2869 63.1667 30.7079 63.1667 31.1818C63.1667 31.6591 63.2347 32.085 63.3706 32.4595C63.5098 32.8307 63.7136 33.1241 63.9821 33.3395C64.2538 33.5516 64.5869 33.6577 64.9814 33.6577ZM73.1445 35.1491C72.3788 35.1491 71.7176 34.9901 71.1608 34.6719C70.6073 34.3504 70.1814 33.8963 69.8831 33.3097C69.5848 32.7197 69.4357 32.0253 69.4357 31.2266C69.4357 30.4411 69.5848 29.7517 69.8831 29.1584C70.1847 28.5618 70.6056 28.0978 71.1459 27.7663C71.6861 27.4316 72.3208 27.2642 73.05 27.2642C73.5206 27.2642 73.9648 27.3404 74.3824 27.4929C74.8033 27.642 75.1745 27.8741 75.496 28.1889C75.8208 28.5038 76.076 28.9048 76.2616 29.392C76.4473 29.8759 76.5401 30.4527 76.5401 31.1222V31.674H70.2808V30.4609H74.8149C74.8116 30.1162 74.737 29.8097 74.5912 29.5412C74.4454 29.2694 74.2415 29.0556 73.9797 28.8999C73.7212 28.7441 73.4196 28.6662 73.0749 28.6662C72.707 28.6662 72.3838 28.7557 72.1054 28.9347C71.827 29.1103 71.6099 29.3423 71.4541 29.6307C71.3017 29.9157 71.2238 30.2289 71.2205 30.5703V31.6293C71.2205 32.0734 71.3017 32.4545 71.4641 32.7727C71.6265 33.0876 71.8535 33.3295 72.1452 33.4986C72.4368 33.6643 72.7782 33.7472 73.1693 33.7472C73.4312 33.7472 73.6681 33.7107 73.8803 33.6378C74.0924 33.5616 74.2763 33.4505 74.4321 33.3047C74.5879 33.1589 74.7055 32.9782 74.7851 32.7628L76.4655 32.9517C76.3594 33.3958 76.1572 33.7836 75.8589 34.1151C75.564 34.4432 75.1861 34.6984 74.7254 34.8807C74.2647 35.0597 73.7377 35.1491 73.1445 35.1491ZM85.7482 27.6172C85.7018 27.183 85.5062 26.8449 85.1615 26.603C84.8202 26.361 84.376 26.2401 83.8292 26.2401C83.4447 26.2401 83.1149 26.2981 82.8398 26.4141C82.5647 26.5301 82.3543 26.6875 82.2084 26.8864C82.0626 27.0852 81.988 27.3123 81.9847 27.5675C81.9847 27.7796 82.0328 27.9635 82.1289 28.1193C82.2283 28.2751 82.3625 28.4077 82.5316 28.517C82.7006 28.6231 82.8879 28.7126 83.0934 28.7855C83.2989 28.8584 83.506 28.9197 83.7148 28.9695L84.6694 29.2081C85.0538 29.2976 85.4234 29.4186 85.778 29.571C86.136 29.7235 86.4558 29.9157 86.7375 30.1477C87.0226 30.3797 87.248 30.6598 87.4137 30.9879C87.5794 31.3161 87.6623 31.7005 87.6623 32.1413C87.6623 32.7379 87.5098 33.2633 87.2049 33.7173C86.8999 34.1681 86.4591 34.5211 85.8824 34.7763C85.309 35.0282 84.6147 35.1541 83.7993 35.1541C83.0072 35.1541 82.3195 35.0315 81.7361 34.7862C81.1561 34.541 80.702 34.183 80.3739 33.7124C80.0491 33.2417 79.8734 32.6683 79.8469 31.9922H81.6615C81.6881 32.3468 81.7974 32.6418 81.9897 32.8771C82.1819 33.1125 82.4321 33.2881 82.7404 33.4041C83.0519 33.5201 83.3999 33.5781 83.7844 33.5781C84.1855 33.5781 84.5368 33.5185 84.8384 33.3991C85.1433 33.2765 85.3819 33.1075 85.5543 32.892C85.7266 32.6733 85.8145 32.4181 85.8178 32.1264C85.8145 31.8613 85.7366 31.6425 85.5841 31.4702C85.4317 31.2945 85.2179 31.1487 84.9428 31.0327C84.671 30.9134 84.3528 30.8073 83.9882 30.7145L82.8299 30.4162C81.9913 30.2008 81.3284 29.8743 80.8412 29.4368C80.3573 28.996 80.1154 28.411 80.1154 27.6818C80.1154 27.0819 80.2778 26.5566 80.6026 26.1058C80.9307 25.6551 81.3765 25.3054 81.94 25.0568C82.5034 24.8049 83.1414 24.679 83.854 24.679C84.5766 24.679 85.2096 24.8049 85.7532 25.0568C86.3 25.3054 86.7293 25.6518 87.0408 26.0959C87.3524 26.5367 87.5131 27.0438 87.523 27.6172H85.7482ZM88.5271 37.8636V27.3636H90.2969V28.6264H90.4013C90.4941 28.4408 90.6251 28.2436 90.7941 28.0348C90.9631 27.8227 91.1918 27.642 91.4802 27.4929C91.7685 27.3404 92.1364 27.2642 92.5839 27.2642C93.1738 27.2642 93.7058 27.415 94.1798 27.7166C94.657 28.0149 95.0349 28.4574 95.3133 29.044C95.595 29.6274 95.7359 30.3433 95.7359 31.1918C95.7359 32.0303 95.5983 32.7429 95.3232 33.3295C95.0481 33.9162 94.6736 34.3636 94.1996 34.6719C93.7257 34.9801 93.1888 35.1342 92.5888 35.1342C92.1513 35.1342 91.7884 35.0613 91.5001 34.9155C91.2117 34.7696 90.9797 34.594 90.804 34.3885C90.6317 34.1797 90.4975 33.9825 90.4013 33.7969H90.3268V37.8636H88.5271ZM90.292 31.1818C90.292 31.6757 90.3616 32.1082 90.5008 32.4794C90.6433 32.8506 90.8471 33.1406 91.1123 33.3494C91.3807 33.5549 91.7056 33.6577 92.0867 33.6577C92.4844 33.6577 92.8175 33.5516 93.086 33.3395C93.3545 33.1241 93.5566 32.8307 93.6925 32.4595C93.8317 32.085 93.9013 31.6591 93.9013 31.1818C93.9013 30.7079 93.8334 30.2869 93.6975 29.919C93.5616 29.5511 93.3594 29.2628 93.091 29.054C92.8225 28.8452 92.4878 28.7408 92.0867 28.7408C91.7022 28.7408 91.3758 28.8419 91.1073 29.044C90.8388 29.2462 90.635 29.5296 90.4958 29.8942C90.3599 30.2588 90.292 30.688 90.292 31.1818ZM98.7745 35.1541C98.2906 35.1541 97.8548 35.0679 97.467 34.8956C97.0825 34.7199 96.7776 34.4614 96.5522 34.12C96.3301 33.7786 96.2191 33.3577 96.2191 32.8572C96.2191 32.4264 96.2987 32.0701 96.4577 31.7884C96.6168 31.5066 96.8339 31.2812 97.109 31.1122C97.3841 30.9432 97.694 30.8156 98.0387 30.7294C98.3867 30.6399 98.7463 30.5753 99.1175 30.5355C99.565 30.4891 99.9279 30.4477 100.206 30.4112C100.485 30.3714 100.687 30.3118 100.813 30.2322C100.942 30.1494 101.007 30.0218 101.007 29.8494V29.8196C101.007 29.4451 100.896 29.1551 100.674 28.9496C100.452 28.7441 100.132 28.6413 99.7141 28.6413C99.2733 28.6413 98.9237 28.7375 98.6651 28.9297C98.4099 29.1219 98.2376 29.349 98.1481 29.6108L96.4677 29.3722C96.6003 28.9081 96.819 28.5204 97.1239 28.2088C97.4289 27.8939 97.8017 27.6586 98.2425 27.5028C98.6834 27.3438 99.1706 27.2642 99.7042 27.2642C100.072 27.2642 100.438 27.3073 100.803 27.3935C101.167 27.4796 101.501 27.6222 101.802 27.821C102.104 28.0166 102.346 28.2834 102.528 28.6214C102.714 28.9595 102.806 29.3821 102.806 29.8892V35H101.076V33.951H101.017C100.907 34.1631 100.753 34.362 100.554 34.5476C100.359 34.7299 100.112 34.8774 99.8136 34.9901C99.5186 35.0994 99.1722 35.1541 98.7745 35.1541ZM99.2418 33.8317C99.6031 33.8317 99.9163 33.7604 100.181 33.6179C100.447 33.4721 100.65 33.2798 100.793 33.0412C100.939 32.8026 101.012 32.5424 101.012 32.2607V31.3608C100.955 31.4072 100.859 31.4503 100.723 31.4901C100.591 31.5298 100.442 31.5646 100.276 31.5945C100.11 31.6243 99.9461 31.6508 99.7837 31.674C99.6213 31.6972 99.4805 31.7171 99.3612 31.7337C99.0927 31.7701 98.8524 31.8298 98.6403 31.9126C98.4281 31.9955 98.2608 32.1115 98.1381 32.2607C98.0155 32.4065 97.9542 32.5954 97.9542 32.8274C97.9542 33.1589 98.0752 33.4091 98.3171 33.5781C98.5591 33.7472 98.8673 33.8317 99.2418 33.8317ZM107.247 35.1491C106.485 35.1491 105.83 34.9818 105.283 34.647C104.74 34.3123 104.32 33.8499 104.026 33.2599C103.734 32.6667 103.588 31.9839 103.588 31.2116C103.588 30.4361 103.737 29.7517 104.035 29.1584C104.334 28.5618 104.755 28.0978 105.298 27.7663C105.845 27.4316 106.491 27.2642 107.237 27.2642C107.857 27.2642 108.405 27.3786 108.883 27.6072C109.363 27.8326 109.746 28.1525 110.031 28.5668C110.316 28.9777 110.479 29.4583 110.518 30.0085H108.798C108.729 29.6406 108.563 29.334 108.301 29.0888C108.043 28.8402 107.696 28.7159 107.262 28.7159C106.894 28.7159 106.571 28.8153 106.293 29.0142C106.014 29.2098 105.797 29.4915 105.641 29.8594C105.489 30.2273 105.413 30.6681 105.413 31.1818C105.413 31.7022 105.489 32.1496 105.641 32.5241C105.794 32.8954 106.008 33.1821 106.283 33.3842C106.561 33.5831 106.887 33.6825 107.262 33.6825C107.527 33.6825 107.764 33.6328 107.973 33.5334C108.185 33.4306 108.362 33.2831 108.505 33.0909C108.647 32.8987 108.745 32.665 108.798 32.3899H110.518C110.475 32.9302 110.316 33.4091 110.041 33.8267C109.766 34.241 109.392 34.5658 108.918 34.8011C108.444 35.0331 107.887 35.1491 107.247 35.1491ZM114.677 35.1491C113.911 35.1491 113.25 34.9901 112.693 34.6719C112.14 34.3504 111.714 33.8963 111.416 33.3097C111.117 32.7197 110.968 32.0253 110.968 31.2266C110.968 30.4411 111.117 29.7517 111.416 29.1584C111.717 28.5618 112.138 28.0978 112.678 27.7663C113.219 27.4316 113.853 27.2642 114.582 27.2642C115.053 27.2642 115.497 27.3404 115.915 27.4929C116.336 27.642 116.707 27.8741 117.028 28.1889C117.353 28.5038 117.608 28.9048 117.794 29.392C117.98 29.8759 118.072 30.4527 118.072 31.1222V31.674H111.813V30.4609H116.347C116.344 30.1162 116.269 29.8097 116.124 29.5412C115.978 29.2694 115.774 29.0556 115.512 28.8999C115.254 28.7441 114.952 28.6662 114.607 28.6662C114.239 28.6662 113.916 28.7557 113.638 28.9347C113.359 29.1103 113.142 29.3423 112.987 29.6307C112.834 29.9157 112.756 30.2289 112.753 30.5703V31.6293C112.753 32.0734 112.834 32.4545 112.996 32.7727C113.159 33.0876 113.386 33.3295 113.678 33.4986C113.969 33.6643 114.311 33.7472 114.702 33.7472C114.964 33.7472 115.201 33.7107 115.413 33.6378C115.625 33.5616 115.809 33.4505 115.965 33.3047C116.12 33.1589 116.238 32.9782 116.318 32.7628L117.998 32.9517C117.892 33.3958 117.69 33.7836 117.391 34.1151C117.096 34.4432 116.719 34.6984 116.258 34.8807C115.797 35.0597 115.27 35.1491 114.677 35.1491Z" fill="#191F38"/>
<path d="M24.0568 63V54.2727H25.1136V62.0625H29.1705V63H24.0568ZM32.7295 63.1364C32.1386 63.1364 31.6202 62.9957 31.1741 62.7145C30.731 62.4332 30.3844 62.0398 30.1344 61.5341C29.8872 61.0284 29.7636 60.4375 29.7636 59.7614C29.7636 59.0795 29.8872 58.4844 30.1344 57.9759C30.3844 57.4673 30.731 57.0724 31.1741 56.7912C31.6202 56.5099 32.1386 56.3693 32.7295 56.3693C33.3205 56.3693 33.8375 56.5099 34.2807 56.7912C34.7267 57.0724 35.0733 57.4673 35.3205 57.9759C35.5705 58.4844 35.6955 59.0795 35.6955 59.7614C35.6955 60.4375 35.5705 61.0284 35.3205 61.5341C35.0733 62.0398 34.7267 62.4332 34.2807 62.7145C33.8375 62.9957 33.3205 63.1364 32.7295 63.1364ZM32.7295 62.233C33.1784 62.233 33.5477 62.1179 33.8375 61.8878C34.1273 61.6577 34.3418 61.3551 34.481 60.9801C34.6202 60.6051 34.6898 60.1989 34.6898 59.7614C34.6898 59.3239 34.6202 58.9162 34.481 58.5384C34.3418 58.1605 34.1273 57.8551 33.8375 57.6222C33.5477 57.3892 33.1784 57.2727 32.7295 57.2727C32.2807 57.2727 31.9114 57.3892 31.6216 57.6222C31.3318 57.8551 31.1173 58.1605 30.9781 58.5384C30.8389 58.9162 30.7693 59.3239 30.7693 59.7614C30.7693 60.1989 30.8389 60.6051 30.9781 60.9801C31.1173 61.3551 31.3318 61.6577 31.6216 61.8878C31.9114 62.1179 32.2807 62.233 32.7295 62.233ZM36.6306 63V56.4545H37.6022V57.4432H37.6704C37.7897 57.1193 38.0056 56.8565 38.3181 56.6548C38.6306 56.4531 38.9829 56.3523 39.3749 56.3523C39.4488 56.3523 39.5411 56.3537 39.6519 56.3565C39.7627 56.3594 39.8465 56.3636 39.9033 56.3693V57.392C39.8692 57.3835 39.7911 57.3707 39.669 57.3537C39.5496 57.3338 39.4232 57.3239 39.2897 57.3239C38.9715 57.3239 38.6874 57.3906 38.4374 57.5241C38.1903 57.6548 37.9942 57.8366 37.8494 58.0696C37.7073 58.2997 37.6363 58.5625 37.6363 58.858V63H36.6306ZM43.0406 63.1364C42.4099 63.1364 41.8658 62.9972 41.4085 62.7188C40.9539 62.4375 40.6031 62.0455 40.3559 61.5426C40.1116 61.0369 39.9894 60.4489 39.9894 59.7784C39.9894 59.108 40.1116 58.517 40.3559 58.0057C40.6031 57.4915 40.9468 57.0909 41.3871 56.804C41.8303 56.5142 42.3474 56.3693 42.9383 56.3693C43.2792 56.3693 43.6158 56.4261 43.9482 56.5398C44.2806 56.6534 44.5832 56.8381 44.8559 57.0938C45.1286 57.3466 45.346 57.6818 45.5079 58.0994C45.6698 58.517 45.7508 59.0312 45.7508 59.642V60.0682H40.7053V59.1989H44.7281C44.7281 58.8295 44.6542 58.5 44.5065 58.2102C44.3616 57.9205 44.1542 57.6918 43.8843 57.5241C43.6173 57.3565 43.3019 57.2727 42.9383 57.2727C42.5377 57.2727 42.1911 57.3722 41.8985 57.571C41.6087 57.767 41.3857 58.0227 41.2295 58.3381C41.0732 58.6534 40.9951 58.9915 40.9951 59.3523V59.9318C40.9951 60.4261 41.0803 60.8452 41.2508 61.1889C41.4241 61.5298 41.6641 61.7898 41.971 61.9688C42.2778 62.1449 42.6343 62.233 43.0406 62.233C43.3048 62.233 43.5434 62.196 43.7565 62.1222C43.9724 62.0455 44.1585 61.9318 44.3147 61.7812C44.471 61.6278 44.5917 61.4375 44.6769 61.2102L45.6485 61.483C45.5462 61.8125 45.3744 62.1023 45.1329 62.3523C44.8914 62.5994 44.5931 62.7926 44.238 62.9318C43.8829 63.0682 43.4837 63.1364 43.0406 63.1364ZM46.6806 63V56.4545H47.6522V57.4773H47.7374C47.8738 57.1278 48.094 56.8565 48.3979 56.6634C48.7019 56.4673 49.067 56.3693 49.4931 56.3693C49.9249 56.3693 50.2843 56.4673 50.5712 56.6634C50.861 56.8565 51.0869 57.1278 51.2488 57.4773H51.317C51.4846 57.1392 51.736 56.8707 52.0712 56.6719C52.4065 56.4702 52.8085 56.3693 53.2772 56.3693C53.8624 56.3693 54.3411 56.5526 54.7133 56.919C55.0854 57.2827 55.2715 57.8494 55.2715 58.6193V63H54.2658V58.6193C54.2658 58.1364 54.1337 57.7912 53.8695 57.5838C53.6053 57.3764 53.2942 57.2727 52.9363 57.2727C52.4761 57.2727 52.1195 57.4119 51.8667 57.6903C51.6139 57.9659 51.4874 58.3153 51.4874 58.7386V63H50.4647V58.517C50.4647 58.1449 50.344 57.8452 50.1025 57.6179C49.861 57.3878 49.5499 57.2727 49.1692 57.2727C48.9079 57.2727 48.6636 57.3423 48.4363 57.4815C48.2119 57.6207 48.03 57.8139 47.8908 58.0611C47.7545 58.3054 47.6863 58.5881 47.6863 58.9091V63H46.6806ZM59.2853 63V56.4545H60.291V63H59.2853ZM59.7967 55.3636C59.6006 55.3636 59.4316 55.2969 59.2896 55.1634C59.1504 55.0298 59.0808 54.8693 59.0808 54.6818C59.0808 54.4943 59.1504 54.3338 59.2896 54.2003C59.4316 54.0668 59.6006 54 59.7967 54C59.9927 54 60.1603 54.0668 60.2995 54.2003C60.4415 54.3338 60.5126 54.4943 60.5126 54.6818C60.5126 54.8693 60.4415 55.0298 60.2995 55.1634C60.1603 55.2969 59.9927 55.3636 59.7967 55.3636ZM61.533 65.4545V56.4545H62.5045V57.4943H62.6239C62.6977 57.3807 62.8 57.2358 62.9307 57.0597C63.0642 56.8807 63.2545 56.7216 63.5017 56.5824C63.7517 56.4403 64.0898 56.3693 64.5159 56.3693C65.067 56.3693 65.5528 56.5071 65.9733 56.7827C66.3937 57.0582 66.7219 57.4489 66.9577 57.9545C67.1935 58.4602 67.3114 59.0568 67.3114 59.7443C67.3114 60.4375 67.1935 61.0384 66.9577 61.5469C66.7219 62.0526 66.3952 62.4446 65.9776 62.723C65.5599 62.9986 65.0784 63.1364 64.533 63.1364C64.1125 63.1364 63.7759 63.0668 63.523 62.9276C63.2702 62.7855 63.0756 62.625 62.9392 62.446C62.8028 62.2642 62.6977 62.1136 62.6239 61.9943H62.5386V65.4545H61.533ZM62.5216 59.7273C62.5216 60.2216 62.594 60.6577 62.7389 61.0355C62.8838 61.4105 63.0955 61.7045 63.3739 61.9176C63.6523 62.1278 63.9932 62.233 64.3966 62.233C64.817 62.233 65.1679 62.1222 65.4491 61.9006C65.7332 61.6761 65.9463 61.375 66.0884 60.9972C66.2332 60.6165 66.3057 60.1932 66.3057 59.7273C66.3057 59.267 66.2347 58.8523 66.0926 58.483C65.9534 58.1108 65.7418 57.8168 65.4577 57.6009C65.1764 57.3821 64.8227 57.2727 64.3966 57.2727C63.9875 57.2727 63.6437 57.3764 63.3653 57.5838C63.0869 57.7884 62.8767 58.0753 62.7347 58.4446C62.5926 58.8111 62.5216 59.2386 62.5216 59.7273ZM72.8818 57.9205L71.9784 58.1761C71.9216 58.0256 71.8378 57.8793 71.727 57.7372C71.619 57.5923 71.4713 57.473 71.2838 57.3793C71.0963 57.2855 70.8563 57.2386 70.5636 57.2386C70.1631 57.2386 69.8293 57.331 69.5622 57.5156C69.298 57.6974 69.1659 57.929 69.1659 58.2102C69.1659 58.4602 69.2568 58.6577 69.4386 58.8026C69.6205 58.9474 69.9045 59.0682 70.2909 59.1648L71.2625 59.4034C71.8477 59.5455 72.2838 59.7628 72.5707 60.0554C72.8577 60.3452 73.0011 60.7187 73.0011 61.1761C73.0011 61.5511 72.8932 61.8864 72.6773 62.1818C72.4642 62.4773 72.1659 62.7102 71.7824 62.8807C71.3989 63.0511 70.9528 63.1364 70.4443 63.1364C69.7767 63.1364 69.2241 62.9915 68.7866 62.7017C68.3491 62.4119 68.0722 61.9886 67.9557 61.4318L68.9102 61.1932C69.0011 61.5455 69.173 61.8097 69.4259 61.9858C69.6815 62.1619 70.0153 62.25 70.4273 62.25C70.896 62.25 71.2682 62.1506 71.5438 61.9517C71.8222 61.75 71.9614 61.5085 71.9614 61.2273C71.9614 61 71.8818 60.8097 71.7227 60.6562C71.5636 60.5 71.3193 60.3835 70.9898 60.3068L69.8989 60.0511C69.2994 59.9091 68.8591 59.6889 68.5778 59.3906C68.2994 59.0895 68.1602 58.7131 68.1602 58.2614C68.1602 57.892 68.2639 57.5653 68.4713 57.2812C68.6815 56.9972 68.967 56.7741 69.3278 56.6122C69.6915 56.4503 70.1034 56.3693 70.5636 56.3693C71.2114 56.3693 71.7199 56.5114 72.0892 56.7955C72.4614 57.0795 72.7256 57.4545 72.8818 57.9205ZM78.04 60.3239V56.4545H79.0457V63H78.04V61.892H77.9718C77.8184 62.2244 77.5798 62.5071 77.2559 62.7401C76.932 62.9702 76.5229 63.0852 76.0286 63.0852C75.6195 63.0852 75.2559 62.9957 74.9377 62.8168C74.6195 62.6349 74.3695 62.3622 74.1877 61.9986C74.0059 61.6321 73.915 61.1705 73.915 60.6136V56.4545H74.9207V60.5455C74.9207 61.0227 75.0542 61.4034 75.3212 61.6875C75.5911 61.9716 75.9349 62.1136 76.3525 62.1136C76.6025 62.1136 76.8567 62.0497 77.1153 61.9219C77.3766 61.794 77.5954 61.598 77.7715 61.3338C77.9505 61.0696 78.04 60.733 78.04 60.3239ZM80.2876 63V56.4545H81.2592V57.4773H81.3445C81.4808 57.1278 81.701 56.8565 82.005 56.6634C82.3089 56.4673 82.674 56.3693 83.1001 56.3693C83.532 56.3693 83.8913 56.4673 84.1783 56.6634C84.468 56.8565 84.6939 57.1278 84.8558 57.4773H84.924C85.0916 57.1392 85.343 56.8707 85.6783 56.6719C86.0135 56.4702 86.4155 56.3693 86.8842 56.3693C87.4695 56.3693 87.9482 56.5526 88.3203 56.919C88.6925 57.2827 88.8786 57.8494 88.8786 58.6193V63H87.8729V58.6193C87.8729 58.1364 87.7408 57.7912 87.4766 57.5838C87.2124 57.3764 86.9013 57.2727 86.5433 57.2727C86.0831 57.2727 85.7266 57.4119 85.4737 57.6903C85.2209 57.9659 85.0945 58.3153 85.0945 58.7386V63H84.0717V58.517C84.0717 58.1449 83.951 57.8452 83.7095 57.6179C83.468 57.3878 83.157 57.2727 82.7763 57.2727C82.5149 57.2727 82.2706 57.3423 82.0433 57.4815C81.8189 57.6207 81.6371 57.8139 81.4979 58.0611C81.3615 58.3054 81.2933 58.5881 81.2933 58.9091V63H80.2876ZM95.3639 63.1364C94.8185 63.1364 94.3369 62.9986 93.9193 62.723C93.5017 62.4446 93.175 62.0526 92.9392 61.5469C92.7034 61.0384 92.5855 60.4375 92.5855 59.7443C92.5855 59.0568 92.7034 58.4602 92.9392 57.9545C93.175 57.4489 93.5031 57.0582 93.9236 56.7827C94.344 56.5071 94.8298 56.3693 95.381 56.3693C95.8071 56.3693 96.1438 56.4403 96.3909 56.5824C96.6409 56.7216 96.8313 56.8807 96.9619 57.0597C97.0955 57.2358 97.1992 57.3807 97.273 57.4943H97.3582V54.2727H98.3639V63H97.3923V61.9943H97.273C97.1992 62.1136 97.094 62.2642 96.9577 62.446C96.8213 62.625 96.6267 62.7855 96.3739 62.9276C96.121 63.0668 95.7844 63.1364 95.3639 63.1364ZM95.5003 62.233C95.9037 62.233 96.2446 62.1278 96.523 61.9176C96.8014 61.7045 97.0131 61.4105 97.158 61.0355C97.3028 60.6577 97.3753 60.2216 97.3753 59.7273C97.3753 59.2386 97.3043 58.8111 97.1622 58.4446C97.0202 58.0753 96.8099 57.7884 96.5315 57.5838C96.2531 57.3764 95.9094 57.2727 95.5003 57.2727C95.0742 57.2727 94.719 57.3821 94.4349 57.6009C94.1537 57.8168 93.942 58.1108 93.8 58.483C93.6608 58.8523 93.5912 59.267 93.5912 59.7273C93.5912 60.1932 93.6622 60.6165 93.8043 60.9972C93.9492 61.375 94.1622 61.6761 94.4435 61.9006C94.7276 62.1222 95.0798 62.233 95.5003 62.233ZM102.405 63.1364C101.814 63.1364 101.295 62.9957 100.849 62.7145C100.406 62.4332 100.059 62.0398 99.8094 61.5341C99.5622 61.0284 99.4386 60.4375 99.4386 59.7614C99.4386 59.0795 99.5622 58.4844 99.8094 57.9759C100.059 57.4673 100.406 57.0724 100.849 56.7912C101.295 56.5099 101.814 56.3693 102.405 56.3693C102.995 56.3693 103.512 56.5099 103.956 56.7912C104.402 57.0724 104.748 57.4673 104.995 57.9759C105.245 58.4844 105.37 59.0795 105.37 59.7614C105.37 60.4375 105.245 61.0284 104.995 61.5341C104.748 62.0398 104.402 62.4332 103.956 62.7145C103.512 62.9957 102.995 63.1364 102.405 63.1364ZM102.405 62.233C102.853 62.233 103.223 62.1179 103.512 61.8878C103.802 61.6577 104.017 61.3551 104.156 60.9801C104.295 60.6051 104.365 60.1989 104.365 59.7614C104.365 59.3239 104.295 58.9162 104.156 58.5384C104.017 58.1605 103.802 57.8551 103.512 57.6222C103.223 57.3892 102.853 57.2727 102.405 57.2727C101.956 57.2727 101.586 57.3892 101.297 57.6222C101.007 57.8551 100.792 58.1605 100.653 58.5384C100.514 58.9162 100.444 59.3239 100.444 59.7614C100.444 60.1989 100.514 60.6051 100.653 60.9801C100.792 61.3551 101.007 61.6577 101.297 61.8878C101.586 62.1179 101.956 62.233 102.405 62.233ZM107.311 54.2727V63H106.306V54.2727H107.311ZM111.212 63.1364C110.621 63.1364 110.103 62.9957 109.657 62.7145C109.214 62.4332 108.867 62.0398 108.617 61.5341C108.37 61.0284 108.246 60.4375 108.246 59.7614C108.246 59.0795 108.37 58.4844 108.617 57.9759C108.867 57.4673 109.214 57.0724 109.657 56.7912C110.103 56.5099 110.621 56.3693 111.212 56.3693C111.803 56.3693 112.32 56.5099 112.763 56.7912C113.21 57.0724 113.556 57.4673 113.803 57.9759C114.053 58.4844 114.178 59.0795 114.178 59.7614C114.178 60.4375 114.053 61.0284 113.803 61.5341C113.556 62.0398 113.21 62.4332 112.763 62.7145C112.32 62.9957 111.803 63.1364 111.212 63.1364ZM111.212 62.233C111.661 62.233 112.031 62.1179 112.32 61.8878C112.61 61.6577 112.825 61.3551 112.964 60.9801C113.103 60.6051 113.173 60.1989 113.173 59.7614C113.173 59.3239 113.103 58.9162 112.964 58.5384C112.825 58.1605 112.61 57.8551 112.32 57.6222C112.031 57.3892 111.661 57.2727 111.212 57.2727C110.763 57.2727 110.394 57.3892 110.104 57.6222C109.815 57.8551 109.6 58.1605 109.461 58.5384C109.322 58.9162 109.252 59.3239 109.252 59.7614C109.252 60.1989 109.322 60.6051 109.461 60.9801C109.6 61.3551 109.815 61.6577 110.104 61.8878C110.394 62.1179 110.763 62.233 111.212 62.233ZM115.113 63V56.4545H116.085V57.4432H116.153C116.273 57.1193 116.488 56.8565 116.801 56.6548C117.113 56.4531 117.466 56.3523 117.858 56.3523C117.932 56.3523 118.024 56.3537 118.135 56.3565C118.246 56.3594 118.329 56.3636 118.386 56.3693V57.392C118.352 57.3835 118.274 57.3707 118.152 57.3537C118.032 57.3338 117.906 57.3239 117.773 57.3239C117.454 57.3239 117.17 57.3906 116.92 57.5241C116.673 57.6548 116.477 57.8366 116.332 58.0696C116.19 58.2997 116.119 58.5625 116.119 58.858V63H115.113ZM126.39 57.9205L125.486 58.1761C125.429 58.0256 125.346 57.8793 125.235 57.7372C125.127 57.5923 124.979 57.473 124.792 57.3793C124.604 57.2855 124.364 57.2386 124.071 57.2386C123.671 57.2386 123.337 57.331 123.07 57.5156C122.806 57.6974 122.674 57.929 122.674 58.2102C122.674 58.4602 122.765 58.6577 122.946 58.8026C123.128 58.9474 123.412 59.0682 123.799 59.1648L124.77 59.4034C125.356 59.5455 125.792 59.7628 126.079 60.0554C126.365 60.3452 126.509 60.7187 126.509 61.1761C126.509 61.5511 126.401 61.8864 126.185 62.1818C125.972 62.4773 125.674 62.7102 125.29 62.8807C124.907 63.0511 124.461 63.1364 123.952 63.1364C123.285 63.1364 122.732 62.9915 122.294 62.7017C121.857 62.4119 121.58 61.9886 121.463 61.4318L122.418 61.1932C122.509 61.5455 122.681 61.8097 122.934 61.9858C123.189 62.1619 123.523 62.25 123.935 62.25C124.404 62.25 124.776 62.1506 125.052 61.9517C125.33 61.75 125.469 61.5085 125.469 61.2273C125.469 61 125.39 60.8097 125.231 60.6562C125.071 60.5 124.827 60.3835 124.498 60.3068L123.407 60.0511C122.807 59.9091 122.367 59.6889 122.086 59.3906C121.807 59.0895 121.668 58.7131 121.668 58.2614C121.668 57.892 121.772 57.5653 121.979 57.2812C122.189 56.9972 122.475 56.7741 122.836 56.6122C123.199 56.4503 123.611 56.3693 124.071 56.3693C124.719 56.3693 125.228 56.5114 125.597 56.7955C125.969 57.0795 126.233 57.4545 126.39 57.9205ZM127.423 63V56.4545H128.428V63H127.423ZM127.934 55.3636C127.738 55.3636 127.569 55.2969 127.427 55.1634C127.288 55.0298 127.218 54.8693 127.218 54.6818C127.218 54.4943 127.288 54.3338 127.427 54.2003C127.569 54.0668 127.738 54 127.934 54C128.13 54 128.298 54.0668 128.437 54.2003C128.579 54.3338 128.65 54.4943 128.65 54.6818C128.65 54.8693 128.579 55.0298 128.437 55.1634C128.298 55.2969 128.13 55.3636 127.934 55.3636ZM132.517 56.4545V57.3068H129.125V56.4545H132.517ZM130.114 54.8864H131.119V61.125C131.119 61.4091 131.161 61.6222 131.243 61.7642C131.328 61.9034 131.436 61.9972 131.567 62.0455C131.7 62.0909 131.841 62.1136 131.989 62.1136C132.099 62.1136 132.19 62.108 132.261 62.0966C132.332 62.0824 132.389 62.071 132.432 62.0625L132.636 62.9659C132.568 62.9915 132.473 63.017 132.351 63.0426C132.229 63.071 132.074 63.0852 131.886 63.0852C131.602 63.0852 131.324 63.0241 131.051 62.902C130.781 62.7798 130.557 62.5938 130.378 62.3438C130.202 62.0938 130.114 61.7784 130.114 61.3977V54.8864ZM138.131 63.1534C137.716 63.1534 137.34 63.0753 137.002 62.919C136.664 62.7599 136.395 62.5312 136.196 62.233C135.997 61.9318 135.898 61.5682 135.898 61.142C135.898 60.767 135.972 60.4631 136.12 60.2301C136.267 59.9943 136.465 59.8097 136.712 59.6761C136.959 59.5426 137.232 59.4432 137.53 59.3778C137.831 59.3097 138.134 59.2557 138.438 59.2159C138.836 59.1648 139.158 59.1264 139.405 59.1009C139.655 59.0724 139.837 59.0256 139.951 58.9602C140.067 58.8949 140.125 58.7812 140.125 58.6193V58.5852C140.125 58.1648 140.01 57.8381 139.78 57.6051C139.553 57.3722 139.208 57.2557 138.745 57.2557C138.264 57.2557 137.888 57.3608 137.615 57.571C137.343 57.7812 137.151 58.0057 137.04 58.2443L136.086 57.9034C136.256 57.5057 136.483 57.196 136.767 56.9744C137.054 56.75 137.367 56.5937 137.705 56.5057C138.046 56.4148 138.381 56.3693 138.711 56.3693C138.921 56.3693 139.162 56.3949 139.435 56.446C139.711 56.4943 139.976 56.5952 140.232 56.7486C140.49 56.902 140.705 57.1335 140.875 57.4432C141.046 57.7528 141.131 58.1676 141.131 58.6875V63H140.125V62.1136H140.074C140.006 62.2557 139.892 62.4077 139.733 62.5696C139.574 62.7315 139.363 62.8693 139.098 62.983C138.834 63.0966 138.512 63.1534 138.131 63.1534ZM138.284 62.25C138.682 62.25 139.017 62.1719 139.29 62.0156C139.566 61.8594 139.773 61.6577 139.912 61.4105C140.054 61.1634 140.125 60.9034 140.125 60.6307V59.7102C140.083 59.7614 139.989 59.8082 139.844 59.8509C139.702 59.8906 139.537 59.9261 139.35 59.9574C139.165 59.9858 138.985 60.0114 138.809 60.0341C138.635 60.054 138.495 60.071 138.387 60.0852C138.125 60.1193 137.881 60.1747 137.654 60.2514C137.429 60.3253 137.247 60.4375 137.108 60.5881C136.972 60.7358 136.904 60.9375 136.904 61.1932C136.904 61.5426 137.033 61.8068 137.291 61.9858C137.553 62.1619 137.884 62.25 138.284 62.25ZM142.367 63V56.4545H143.338V57.4773H143.423C143.56 57.1278 143.78 56.8565 144.084 56.6634C144.388 56.4673 144.753 56.3693 145.179 56.3693C145.611 56.3693 145.97 56.4673 146.257 56.6634C146.547 56.8565 146.773 57.1278 146.935 57.4773H147.003C147.171 57.1392 147.422 56.8707 147.757 56.6719C148.092 56.4702 148.494 56.3693 148.963 56.3693C149.548 56.3693 150.027 56.5526 150.399 56.919C150.771 57.2827 150.957 57.8494 150.957 58.6193V63H149.952V58.6193C149.952 58.1364 149.82 57.7912 149.555 57.5838C149.291 57.3764 148.98 57.2727 148.622 57.2727C148.162 57.2727 147.805 57.4119 147.553 57.6903C147.3 57.9659 147.173 58.3153 147.173 58.7386V63H146.151V58.517C146.151 58.1449 146.03 57.8452 145.788 57.6179C145.547 57.3878 145.236 57.2727 144.855 57.2727C144.594 57.2727 144.349 57.3423 144.122 57.4815C143.898 57.6207 143.716 57.8139 143.577 58.0611C143.44 58.3054 143.372 58.5881 143.372 58.9091V63H142.367ZM154.941 63.1364C154.31 63.1364 153.766 62.9972 153.308 62.7188C152.854 62.4375 152.503 62.0455 152.256 61.5426C152.012 61.0369 151.889 60.4489 151.889 59.7784C151.889 59.108 152.012 58.517 152.256 58.0057C152.503 57.4915 152.847 57.0909 153.287 56.804C153.73 56.5142 154.247 56.3693 154.838 56.3693C155.179 56.3693 155.516 56.4261 155.848 56.5398C156.181 56.6534 156.483 56.8381 156.756 57.0938C157.029 57.3466 157.246 57.6818 157.408 58.0994C157.57 58.517 157.651 59.0312 157.651 59.642V60.0682H152.605V59.1989H156.628C156.628 58.8295 156.554 58.5 156.406 58.2102C156.262 57.9205 156.054 57.6918 155.784 57.5241C155.517 57.3565 155.202 57.2727 154.838 57.2727C154.438 57.2727 154.091 57.3722 153.799 57.571C153.509 57.767 153.286 58.0227 153.129 58.3381C152.973 58.6534 152.895 58.9915 152.895 59.3523V59.9318C152.895 60.4261 152.98 60.8452 153.151 61.1889C153.324 61.5298 153.564 61.7898 153.871 61.9688C154.178 62.1449 154.534 62.233 154.941 62.233C155.205 62.233 155.443 62.196 155.656 62.1222C155.872 62.0455 156.058 61.9318 156.215 61.7812C156.371 61.6278 156.492 61.4375 156.577 61.2102L157.549 61.483C157.446 61.8125 157.274 62.1023 157.033 62.3523C156.791 62.5994 156.493 62.7926 156.138 62.9318C155.783 63.0682 155.384 63.1364 154.941 63.1364ZM161.427 56.4545V57.3068H158.035V56.4545H161.427ZM159.024 54.8864H160.029V61.125C160.029 61.4091 160.071 61.6222 160.153 61.7642C160.238 61.9034 160.346 61.9972 160.477 62.0455C160.61 62.0909 160.751 62.1136 160.899 62.1136C161.01 62.1136 161.1 62.108 161.172 62.0966C161.243 62.0824 161.299 62.071 161.342 62.0625L161.547 62.9659C161.478 62.9915 161.383 63.017 161.261 63.0426C161.139 63.071 160.984 63.0852 160.797 63.0852C160.512 63.0852 160.234 63.0241 159.961 62.902C159.691 62.7798 159.467 62.5938 159.288 62.3438C159.112 62.0938 159.024 61.7784 159.024 61.3977V54.8864ZM26.5795 83.1364C25.9659 83.1364 25.4375 82.9915 24.9943 82.7017C24.5511 82.4119 24.2102 82.0128 23.9716 81.5043C23.733 80.9957 23.6136 80.4148 23.6136 79.7614C23.6136 79.0966 23.7358 78.5099 23.9801 78.0014C24.2273 77.4901 24.571 77.0909 25.0114 76.804C25.4545 76.5142 25.9716 76.3693 26.5625 76.3693C27.0227 76.3693 27.4375 76.4545 27.8068 76.625C28.1761 76.7955 28.4787 77.0341 28.7145 77.3409C28.9503 77.6477 29.0966 78.0057 29.1534 78.4148H28.1477C28.071 78.1165 27.9006 77.8523 27.6364 77.6222C27.375 77.3892 27.0227 77.2727 26.5795 77.2727C26.1875 77.2727 25.8438 77.375 25.5483 77.5795C25.2557 77.7812 25.027 78.0668 24.8622 78.4361C24.7003 78.8026 24.6193 79.233 24.6193 79.7273C24.6193 80.233 24.6989 80.6733 24.858 81.0483C25.0199 81.4233 25.2472 81.7145 25.5398 81.9219C25.8352 82.1293 26.1818 82.233 26.5795 82.233C26.8409 82.233 27.0781 82.1875 27.2912 82.0966C27.5043 82.0057 27.6847 81.875 27.8324 81.7045C27.9801 81.5341 28.0852 81.3295 28.1477 81.0909H29.1534C29.0966 81.4773 28.956 81.8253 28.7315 82.1349C28.5099 82.4418 28.2159 82.6861 27.8494 82.8679C27.4858 83.0469 27.0625 83.1364 26.5795 83.1364ZM32.6827 83.1364C32.0918 83.1364 31.5733 82.9957 31.1273 82.7145C30.6841 82.4332 30.3375 82.0398 30.0875 81.5341C29.8403 81.0284 29.7168 80.4375 29.7168 79.7614C29.7168 79.0795 29.8403 78.4844 30.0875 77.9759C30.3375 77.4673 30.6841 77.0724 31.1273 76.7912C31.5733 76.5099 32.0918 76.3693 32.6827 76.3693C33.2736 76.3693 33.7906 76.5099 34.2338 76.7912C34.6798 77.0724 35.0264 77.4673 35.2736 77.9759C35.5236 78.4844 35.6486 79.0795 35.6486 79.7614C35.6486 80.4375 35.5236 81.0284 35.2736 81.5341C35.0264 82.0398 34.6798 82.4332 34.2338 82.7145C33.7906 82.9957 33.2736 83.1364 32.6827 83.1364ZM32.6827 82.233C33.1315 82.233 33.5009 82.1179 33.7906 81.8878C34.0804 81.6577 34.2949 81.3551 34.4341 80.9801C34.5733 80.6051 34.6429 80.1989 34.6429 79.7614C34.6429 79.3239 34.5733 78.9162 34.4341 78.5384C34.2949 78.1605 34.0804 77.8551 33.7906 77.6222C33.5009 77.3892 33.1315 77.2727 32.6827 77.2727C32.2338 77.2727 31.8645 77.3892 31.5747 77.6222C31.2849 77.8551 31.0705 78.1605 30.9313 78.5384C30.792 78.9162 30.7224 79.3239 30.7224 79.7614C30.7224 80.1989 30.792 80.6051 30.9313 80.9801C31.0705 81.3551 31.2849 81.6577 31.5747 81.8878C31.8645 82.1179 32.2338 82.233 32.6827 82.233ZM37.5894 79.0625V83H36.5837V76.4545H37.5553V77.4773H37.6406C37.794 77.1449 38.0269 76.8778 38.3394 76.6761C38.6519 76.4716 39.0553 76.3693 39.5496 76.3693C39.9928 76.3693 40.3806 76.4602 40.713 76.642C41.0454 76.821 41.3039 77.0938 41.4886 77.4602C41.6732 77.8239 41.7656 78.2841 41.7656 78.8409V83H40.7599V78.9091C40.7599 78.3949 40.6263 77.9943 40.3593 77.7074C40.0923 77.4176 39.7258 77.2727 39.2599 77.2727C38.9388 77.2727 38.6519 77.3423 38.3991 77.4815C38.1491 77.6207 37.9516 77.8239 37.8067 78.0909C37.6619 78.358 37.5894 78.6818 37.5894 79.0625ZM47.6396 77.9205L46.7362 78.1761C46.6794 78.0256 46.5956 77.8793 46.4848 77.7372C46.3768 77.5923 46.2291 77.473 46.0416 77.3793C45.8541 77.2855 45.6141 77.2386 45.3214 77.2386C44.9209 77.2386 44.5871 77.331 44.32 77.5156C44.0558 77.6974 43.9237 77.929 43.9237 78.2102C43.9237 78.4602 44.0146 78.6577 44.1964 78.8026C44.3783 78.9474 44.6624 79.0682 45.0487 79.1648L46.0203 79.4034C46.6055 79.5455 47.0416 79.7628 47.3286 80.0554C47.6155 80.3452 47.7589 80.7187 47.7589 81.1761C47.7589 81.5511 47.651 81.8864 47.4351 82.1818C47.222 82.4773 46.9237 82.7102 46.5402 82.8807C46.1567 83.0511 45.7107 83.1364 45.2021 83.1364C44.5345 83.1364 43.982 82.9915 43.5445 82.7017C43.107 82.4119 42.83 81.9886 42.7135 81.4318L43.668 81.1932C43.7589 81.5455 43.9308 81.8097 44.1837 81.9858C44.4393 82.1619 44.7732 82.25 45.1851 82.25C45.6538 82.25 46.026 82.1506 46.3016 81.9517C46.58 81.75 46.7192 81.5085 46.7192 81.2273C46.7192 81 46.6396 80.8097 46.4805 80.6562C46.3214 80.5 46.0771 80.3835 45.7476 80.3068L44.6567 80.0511C44.0572 79.9091 43.6169 79.6889 43.3357 79.3906C43.0572 79.0895 42.918 78.7131 42.918 78.2614C42.918 77.892 43.0217 77.5653 43.2291 77.2812C43.4393 76.9972 43.7249 76.7741 44.0857 76.6122C44.4493 76.4503 44.8612 76.3693 45.3214 76.3693C45.9692 76.3693 46.4777 76.5114 46.847 76.7955C47.2192 77.0795 47.4834 77.4545 47.6396 77.9205ZM51.4171 83.1364C50.7864 83.1364 50.2424 82.9972 49.785 82.7188C49.3305 82.4375 48.9796 82.0455 48.7325 81.5426C48.4881 81.0369 48.366 80.4489 48.366 79.7784C48.366 79.108 48.4881 78.517 48.7325 78.0057C48.9796 77.4915 49.3234 77.0909 49.7637 76.804C50.2069 76.5142 50.7239 76.3693 51.3148 76.3693C51.6558 76.3693 51.9924 76.4261 52.3248 76.5398C52.6572 76.6534 52.9597 76.8381 53.2325 77.0938C53.5052 77.3466 53.7225 77.6818 53.8844 78.0994C54.0464 78.517 54.1273 79.0312 54.1273 79.642V80.0682H49.0819V79.1989H53.1046C53.1046 78.8295 53.0308 78.5 52.883 78.2102C52.7381 77.9205 52.5308 77.6918 52.2609 77.5241C51.9938 77.3565 51.6785 77.2727 51.3148 77.2727C50.9143 77.2727 50.5677 77.3722 50.2751 77.571C49.9853 77.767 49.7623 78.0227 49.606 78.3381C49.4498 78.6534 49.3717 78.9915 49.3717 79.3523V79.9318C49.3717 80.4261 49.4569 80.8452 49.6273 81.1889C49.8006 81.5298 50.0407 81.7898 50.3475 81.9688C50.6543 82.1449 51.0109 82.233 51.4171 82.233C51.6813 82.233 51.92 82.196 52.133 82.1222C52.3489 82.0455 52.535 81.9318 52.6913 81.7812C52.8475 81.6278 52.9683 81.4375 53.0535 81.2102L54.0251 81.483C53.9228 81.8125 53.7509 82.1023 53.5094 82.3523C53.268 82.5994 52.9697 82.7926 52.6146 82.9318C52.2594 83.0682 51.8603 83.1364 51.4171 83.1364ZM57.7163 83.1364C57.1026 83.1364 56.5742 82.9915 56.131 82.7017C55.6879 82.4119 55.3469 82.0128 55.1083 81.5043C54.8697 80.9957 54.7504 80.4148 54.7504 79.7614C54.7504 79.0966 54.8725 78.5099 55.1168 78.0014C55.364 77.4901 55.7077 77.0909 56.1481 76.804C56.5913 76.5142 57.1083 76.3693 57.6992 76.3693C58.1594 76.3693 58.5742 76.4545 58.9435 76.625C59.3129 76.7955 59.6154 77.0341 59.8512 77.3409C60.087 77.6477 60.2333 78.0057 60.2901 78.4148H59.2844C59.2077 78.1165 59.0373 77.8523 58.7731 77.6222C58.5117 77.3892 58.1594 77.2727 57.7163 77.2727C57.3242 77.2727 56.9805 77.375 56.685 77.5795C56.3924 77.7812 56.1637 78.0668 55.9989 78.4361C55.837 78.8026 55.756 79.233 55.756 79.7273C55.756 80.233 55.8356 80.6733 55.9947 81.0483C56.1566 81.4233 56.3839 81.7145 56.6765 81.9219C56.9719 82.1293 57.3185 82.233 57.7163 82.233C57.9776 82.233 58.2148 82.1875 58.4279 82.0966C58.641 82.0057 58.8214 81.875 58.9691 81.7045C59.1168 81.5341 59.2219 81.3295 59.2844 81.0909H60.2901C60.2333 81.4773 60.0927 81.8253 59.8683 82.1349C59.6467 82.4418 59.3526 82.6861 58.9862 82.8679C58.6225 83.0469 58.1992 83.1364 57.7163 83.1364ZM64.0069 76.4545V77.3068H60.6148V76.4545H64.0069ZM61.6035 74.8864H62.6092V81.125C62.6092 81.4091 62.6504 81.6222 62.7327 81.7642C62.818 81.9034 62.9259 81.9972 63.0566 82.0455C63.1901 82.0909 63.3308 82.1136 63.4785 82.1136C63.5893 82.1136 63.6802 82.108 63.7512 82.0966C63.8222 82.0824 63.8791 82.071 63.9217 82.0625L64.1262 82.9659C64.058 82.9915 63.9629 83.017 63.8407 83.0426C63.7185 83.071 63.5637 83.0852 63.3762 83.0852C63.0921 83.0852 62.8137 83.0241 62.541 82.902C62.2711 82.7798 62.0467 82.5938 61.8677 82.3438C61.6915 82.0938 61.6035 81.7784 61.6035 81.3977V74.8864ZM67.5937 83.1364C66.963 83.1364 66.419 82.9972 65.9616 82.7188C65.507 82.4375 65.1562 82.0455 64.909 81.5426C64.6647 81.0369 64.5425 80.4489 64.5425 79.7784C64.5425 79.108 64.6647 78.517 64.909 78.0057C65.1562 77.4915 65.4999 77.0909 65.9403 76.804C66.3835 76.5142 66.9005 76.3693 67.4914 76.3693C67.8323 76.3693 68.169 76.4261 68.5013 76.5398C68.8337 76.6534 69.1363 76.8381 69.409 77.0938C69.6817 77.3466 69.8991 77.6818 70.061 78.0994C70.2229 78.517 70.3039 79.0312 70.3039 79.642V80.0682H65.2585V79.1989H69.2812C69.2812 78.8295 69.2073 78.5 69.0596 78.2102C68.9147 77.9205 68.7073 77.6918 68.4374 77.5241C68.1704 77.3565 67.855 77.2727 67.4914 77.2727C67.0908 77.2727 66.7442 77.3722 66.4516 77.571C66.1619 77.767 65.9388 78.0227 65.7826 78.3381C65.6263 78.6534 65.5482 78.9915 65.5482 79.3523V79.9318C65.5482 80.4261 65.6335 80.8452 65.8039 81.1889C65.9772 81.5298 66.2173 81.7898 66.5241 81.9688C66.8309 82.1449 67.1874 82.233 67.5937 82.233C67.8579 82.233 68.0965 82.196 68.3096 82.1222C68.5255 82.0455 68.7116 81.9318 68.8678 81.7812C69.0241 81.6278 69.1448 81.4375 69.23 81.2102L70.2016 81.483C70.0994 81.8125 69.9275 82.1023 69.686 82.3523C69.4445 82.5994 69.1462 82.7926 68.7911 82.9318C68.436 83.0682 68.0369 83.1364 67.5937 83.1364ZM74.0803 76.4545V77.3068H70.6883V76.4545H74.0803ZM71.6769 74.8864H72.6826V81.125C72.6826 81.4091 72.7238 81.6222 72.8062 81.7642C72.8914 81.9034 72.9994 81.9972 73.13 82.0455C73.2636 82.0909 73.4042 82.1136 73.5519 82.1136C73.6627 82.1136 73.7536 82.108 73.8246 82.0966C73.8957 82.0824 73.9525 82.071 73.9951 82.0625L74.1996 82.9659C74.1315 82.9915 74.0363 83.017 73.9141 83.0426C73.792 83.071 73.6371 83.0852 73.4496 83.0852C73.1656 83.0852 72.8871 83.0241 72.6144 82.902C72.3445 82.7798 72.1201 82.5938 71.9411 82.3438C71.765 82.0938 71.6769 81.7784 71.6769 81.3977V74.8864ZM79.1181 80.3239V76.4545H80.1238V83H79.1181V81.892H79.0499C78.8965 82.2244 78.6579 82.5071 78.334 82.7401C78.0102 82.9702 77.6011 83.0852 77.1067 83.0852C76.6977 83.0852 76.334 82.9957 76.0158 82.8168C75.6977 82.6349 75.4477 82.3622 75.2658 81.9986C75.084 81.6321 74.9931 81.1705 74.9931 80.6136V76.4545H75.9988V80.5455C75.9988 81.0227 76.1323 81.4034 76.3994 81.6875C76.6692 81.9716 77.013 82.1136 77.4306 82.1136C77.6806 82.1136 77.9349 82.0497 78.1934 81.9219C78.4548 81.794 78.6735 81.598 78.8496 81.3338C79.0286 81.0696 79.1181 80.733 79.1181 80.3239ZM81.3658 83V76.4545H82.3374V77.4432H82.4055C82.5249 77.1193 82.7408 76.8565 83.0533 76.6548C83.3658 76.4531 83.718 76.3523 84.1101 76.3523C84.1839 76.3523 84.2763 76.3537 84.3871 76.3565C84.4979 76.3594 84.5817 76.3636 84.6385 76.3693V77.392C84.6044 77.3835 84.5263 77.3707 84.4041 77.3537C84.2848 77.3338 84.1584 77.3239 84.0249 77.3239C83.7067 77.3239 83.4226 77.3906 83.1726 77.5241C82.9254 77.6548 82.7294 77.8366 82.5845 78.0696C82.4425 78.2997 82.3714 78.5625 82.3714 78.858V83H81.3658ZM85.2136 83.0682C85.0033 83.0682 84.8229 82.9929 84.6724 82.8423C84.5218 82.6918 84.4465 82.5114 84.4465 82.3011C84.4465 82.0909 84.5218 81.9105 84.6724 81.7599C84.8229 81.6094 85.0033 81.5341 85.2136 81.5341C85.4238 81.5341 85.6042 81.6094 85.7548 81.7599C85.9053 81.9105 85.9806 82.0909 85.9806 82.3011C85.9806 82.4403 85.9451 82.5682 85.8741 82.6847C85.8059 82.8011 85.7136 82.8949 85.5971 82.9659C85.4835 83.0341 85.3556 83.0682 85.2136 83.0682Z" fill="#697588"/>
<path d="M26.8182 119H23.8608V110.273H26.8778C27.7443 110.273 28.4886 110.447 29.1108 110.797C29.7358 111.143 30.2159 111.642 30.5511 112.293C30.8864 112.943 31.054 113.722 31.054 114.628C31.054 115.537 30.8849 116.318 30.5469 116.972C30.2116 117.625 29.7273 118.126 29.0938 118.476C28.4631 118.825 27.7045 119 26.8182 119ZM25.4418 117.632H26.7415C27.3494 117.632 27.8565 117.521 28.2628 117.3C28.669 117.075 28.9744 116.741 29.179 116.298C29.3835 115.852 29.4858 115.295 29.4858 114.628C29.4858 113.96 29.3835 113.406 29.179 112.966C28.9744 112.523 28.6719 112.192 28.2713 111.973C27.8736 111.751 27.3793 111.641 26.7884 111.641H25.4418V117.632ZM31.8879 119V112.455H33.4305V119H31.8879ZM32.6635 111.526C32.4192 111.526 32.2089 111.445 32.0328 111.283C31.8567 111.118 31.7686 110.92 31.7686 110.69C31.7686 110.457 31.8567 110.26 32.0328 110.098C32.2089 109.933 32.4192 109.851 32.6635 109.851C32.9107 109.851 33.1209 109.933 33.2942 110.098C33.4703 110.26 33.5584 110.457 33.5584 110.69C33.5584 110.92 33.4703 111.118 33.2942 111.283C33.1209 111.445 32.9107 111.526 32.6635 111.526ZM39.5901 114.185L38.1839 114.338C38.1441 114.196 38.0745 114.062 37.9751 113.938C37.8785 113.812 37.7478 113.712 37.583 113.635C37.4183 113.558 37.2165 113.52 36.9779 113.52C36.6569 113.52 36.387 113.589 36.1683 113.729C35.9523 113.868 35.8458 114.048 35.8487 114.27C35.8458 114.46 35.9154 114.615 36.0575 114.734C36.2023 114.854 36.441 114.952 36.7734 115.028L37.8898 115.267C38.5092 115.401 38.9694 115.612 39.2705 115.902C39.5745 116.192 39.7279 116.571 39.7308 117.04C39.7279 117.452 39.6072 117.815 39.3685 118.131C39.1327 118.443 38.8046 118.687 38.3842 118.864C37.9637 119.04 37.4808 119.128 36.9353 119.128C36.1342 119.128 35.4893 118.96 35.0006 118.625C34.512 118.287 34.2208 117.817 34.1271 117.214L35.6313 117.07C35.6995 117.365 35.8444 117.588 36.066 117.739C36.2876 117.889 36.5759 117.964 36.931 117.964C37.2975 117.964 37.5915 117.889 37.8131 117.739C38.0376 117.588 38.1498 117.402 38.1498 117.18C38.1498 116.993 38.0773 116.838 37.9325 116.716C37.7904 116.594 37.5688 116.5 37.2677 116.435L36.1512 116.2C35.5234 116.07 35.0589 115.849 34.7577 115.54C34.4566 115.227 34.3075 114.832 34.3103 114.355C34.3075 113.952 34.4168 113.602 34.6384 113.307C34.8629 113.009 35.1739 112.778 35.5717 112.616C35.9722 112.452 36.4339 112.369 36.9566 112.369C37.7237 112.369 38.3273 112.533 38.7677 112.859C39.2109 113.186 39.485 113.628 39.5901 114.185ZM40.4028 119V112.455H41.8772V113.567H41.9539C42.0903 113.192 42.3161 112.899 42.6315 112.689C42.9468 112.476 43.3232 112.369 43.7607 112.369C44.2039 112.369 44.5775 112.477 44.8815 112.693C45.1883 112.906 45.4042 113.197 45.5292 113.567H45.5974C45.7423 113.203 45.9866 112.913 46.3303 112.697C46.6769 112.479 47.0874 112.369 47.5619 112.369C48.1641 112.369 48.6556 112.56 49.0363 112.94C49.417 113.321 49.6073 113.876 49.6073 114.607V119H48.0604V114.845C48.0604 114.439 47.9525 114.142 47.7366 113.955C47.5207 113.764 47.2565 113.669 46.944 113.669C46.5718 113.669 46.2806 113.786 46.0704 114.018C45.863 114.249 45.7593 114.548 45.7593 114.918V119H44.2465V114.781C44.2465 114.443 44.1442 114.173 43.9397 113.972C43.738 113.77 43.4738 113.669 43.1471 113.669C42.9255 113.669 42.7238 113.726 42.542 113.839C42.3602 113.95 42.2153 114.108 42.1073 114.312C41.9994 114.514 41.9454 114.75 41.9454 115.02V119H40.4028ZM50.5723 119V112.455H52.1149V119H50.5723ZM51.3479 111.526C51.1036 111.526 50.8933 111.445 50.7172 111.283C50.5411 111.118 50.453 110.92 50.453 110.69C50.453 110.457 50.5411 110.26 50.7172 110.098C50.8933 109.933 51.1036 109.851 51.3479 109.851C51.595 109.851 51.8053 109.933 51.9786 110.098C52.1547 110.26 52.2428 110.457 52.2428 110.69C52.2428 110.92 52.1547 111.118 51.9786 111.283C51.8053 111.445 51.595 111.526 51.3479 111.526ZM58.2745 114.185L56.8683 114.338C56.8285 114.196 56.7589 114.062 56.6594 113.938C56.5629 113.812 56.4322 113.712 56.2674 113.635C56.1026 113.558 55.9009 113.52 55.6623 113.52C55.3413 113.52 55.0714 113.589 54.8526 113.729C54.6367 113.868 54.5302 114.048 54.533 114.27C54.5302 114.46 54.5998 114.615 54.7418 114.734C54.8867 114.854 55.1254 114.952 55.4577 115.028L56.5742 115.267C57.1935 115.401 57.6538 115.612 57.9549 115.902C58.2589 116.192 58.4123 116.571 58.4151 117.04C58.4123 117.452 58.2915 117.815 58.0529 118.131C57.8171 118.443 57.489 118.687 57.0685 118.864C56.6481 119.04 56.1651 119.128 55.6197 119.128C54.8185 119.128 54.1737 118.96 53.685 118.625C53.1964 118.287 52.9052 117.817 52.8114 117.214L54.3157 117.07C54.3839 117.365 54.5288 117.588 54.7504 117.739C54.9719 117.889 55.2603 117.964 55.6154 117.964C55.9819 117.964 56.2759 117.889 56.4975 117.739C56.7219 117.588 56.8342 117.402 56.8342 117.18C56.8342 116.993 56.7617 116.838 56.6168 116.716C56.4748 116.594 56.2532 116.5 55.9521 116.435L54.8356 116.2C54.2077 116.07 53.7433 115.849 53.4421 115.54C53.141 115.227 52.9918 114.832 52.9947 114.355C52.9918 113.952 53.1012 113.602 53.3228 113.307C53.5472 113.009 53.8583 112.778 54.256 112.616C54.6566 112.452 55.1183 112.369 55.641 112.369C56.408 112.369 57.0117 112.533 57.4521 112.859C57.8952 113.186 58.1694 113.628 58.2745 114.185ZM64.2604 114.185L62.8542 114.338C62.8144 114.196 62.7448 114.062 62.6454 113.938C62.5488 113.812 62.4181 113.712 62.2533 113.635C62.0886 113.558 61.8869 113.52 61.6482 113.52C61.3272 113.52 61.0573 113.589 60.8386 113.729C60.6227 113.868 60.5161 114.048 60.519 114.27C60.5161 114.46 60.5857 114.615 60.7278 114.734C60.8727 114.854 61.1113 114.952 61.4437 115.028L62.5602 115.267C63.1795 115.401 63.6397 115.612 63.9408 115.902C64.2448 116.192 64.3982 116.571 64.4011 117.04C64.3982 117.452 64.2775 117.815 64.0389 118.131C63.8031 118.443 63.4749 118.687 63.0545 118.864C62.634 119.04 62.1511 119.128 61.6056 119.128C60.8045 119.128 60.1596 118.96 59.671 118.625C59.1823 118.287 58.8911 117.817 58.7974 117.214L60.3016 117.07C60.3698 117.365 60.5147 117.588 60.7363 117.739C60.9579 117.889 61.2462 117.964 61.6014 117.964C61.9678 117.964 62.2619 117.889 62.4835 117.739C62.7079 117.588 62.8201 117.402 62.8201 117.18C62.8201 116.993 62.7477 116.838 62.6028 116.716C62.4607 116.594 62.2391 116.5 61.938 116.435L60.8215 116.2C60.1937 116.07 59.7292 115.849 59.4281 115.54C59.1269 115.227 58.9778 114.832 58.9806 114.355C58.9778 113.952 59.0871 113.602 59.3087 113.307C59.5332 113.009 59.8442 112.778 60.242 112.616C60.6425 112.452 61.1042 112.369 61.6269 112.369C62.394 112.369 62.9977 112.533 63.438 112.859C63.8812 113.186 64.1553 113.628 64.2604 114.185Z" fill="#7389FF"/>
<path d="M86.3622 110.273H87.9432V115.974C87.9432 116.599 87.7955 117.149 87.5 117.624C87.2074 118.098 86.7955 118.469 86.2642 118.736C85.733 119 85.1122 119.132 84.402 119.132C83.6889 119.132 83.0668 119 82.5355 118.736C82.0043 118.469 81.5923 118.098 81.2997 117.624C81.0071 117.149 80.8608 116.599 80.8608 115.974V110.273H82.4418V115.842C82.4418 116.206 82.5213 116.53 82.6804 116.814C82.8423 117.098 83.0696 117.321 83.3622 117.483C83.6548 117.642 84.0014 117.722 84.402 117.722C84.8026 117.722 85.1491 117.642 85.4418 117.483C85.7372 117.321 85.9645 117.098 86.1236 116.814C86.2827 116.53 86.3622 116.206 86.3622 115.842V110.273ZM88.9934 121.455V112.455H90.5104V113.537H90.5999C90.6795 113.378 90.7917 113.209 90.9366 113.03C91.0815 112.848 91.2775 112.693 91.5246 112.565C91.7718 112.435 92.0871 112.369 92.4707 112.369C92.9763 112.369 93.4323 112.499 93.8386 112.757C94.2477 113.013 94.5715 113.392 94.8102 113.895C95.0516 114.395 95.1724 115.009 95.1724 115.736C95.1724 116.455 95.0545 117.065 94.8187 117.568C94.5829 118.071 94.2619 118.455 93.8556 118.719C93.4494 118.983 92.9891 119.115 92.4749 119.115C92.0999 119.115 91.7888 119.053 91.5417 118.928C91.2945 118.803 91.0957 118.652 90.9451 118.476C90.7974 118.297 90.6823 118.128 90.5999 117.969H90.536V121.455H88.9934ZM90.5062 115.727C90.5062 116.151 90.5658 116.521 90.6852 116.839C90.8073 117.158 90.982 117.406 91.2093 117.585C91.4394 117.761 91.7178 117.849 92.0445 117.849C92.3854 117.849 92.671 117.759 92.9011 117.577C93.1312 117.392 93.3045 117.141 93.421 116.822C93.5403 116.501 93.5999 116.136 93.5999 115.727C93.5999 115.321 93.5417 114.96 93.4252 114.645C93.3087 114.33 93.1354 114.082 92.9053 113.903C92.6752 113.724 92.3883 113.635 92.0445 113.635C91.715 113.635 91.4352 113.722 91.205 113.895C90.9749 114.068 90.8002 114.311 90.6809 114.624C90.5644 114.936 90.5062 115.304 90.5062 115.727ZM98.74 121.591C98.186 121.591 97.7102 121.516 97.3124 121.365C96.9147 121.217 96.5951 121.018 96.3536 120.768C96.1121 120.518 95.9445 120.241 95.8508 119.938L97.24 119.601C97.3025 119.729 97.3934 119.855 97.5127 119.98C97.632 120.108 97.7925 120.213 97.9942 120.295C98.1988 120.381 98.4559 120.423 98.7656 120.423C99.2031 120.423 99.5653 120.317 99.8522 120.104C100.139 119.893 100.283 119.547 100.283 119.064V117.824H100.206C100.126 117.983 100.01 118.146 99.8565 118.314C99.7059 118.482 99.5056 118.622 99.2556 118.736C99.0085 118.849 98.6974 118.906 98.3224 118.906C97.8195 118.906 97.3636 118.788 96.9545 118.553C96.5482 118.314 96.2244 117.959 95.9829 117.487C95.7442 117.013 95.6249 116.419 95.6249 115.706C95.6249 114.987 95.7442 114.381 95.9829 113.886C96.2244 113.389 96.5496 113.013 96.9587 112.757C97.3678 112.499 97.8238 112.369 98.3266 112.369C98.7102 112.369 99.0255 112.435 99.2727 112.565C99.5227 112.693 99.7215 112.848 99.8692 113.03C100.017 113.209 100.129 113.378 100.206 113.537H100.291V112.455H101.812V119.107C101.812 119.666 101.679 120.129 101.412 120.496C101.145 120.862 100.78 121.136 100.317 121.318C99.8536 121.5 99.3281 121.591 98.74 121.591ZM98.7528 117.696C99.0795 117.696 99.3579 117.616 99.588 117.457C99.8181 117.298 99.9928 117.07 100.112 116.771C100.231 116.473 100.291 116.115 100.291 115.697C100.291 115.286 100.231 114.925 100.112 114.615C99.9957 114.305 99.8224 114.065 99.5923 113.895C99.365 113.722 99.0852 113.635 98.7528 113.635C98.409 113.635 98.1221 113.724 97.892 113.903C97.6619 114.082 97.4886 114.328 97.3721 114.641C97.2556 114.95 97.1974 115.303 97.1974 115.697C97.1974 116.098 97.2556 116.449 97.3721 116.75C97.4914 117.048 97.6661 117.281 97.8962 117.449C98.1292 117.614 98.4147 117.696 98.7528 117.696ZM102.793 119V112.455H104.289V113.545H104.357C104.477 113.168 104.681 112.876 104.971 112.672C105.264 112.464 105.597 112.361 105.972 112.361C106.058 112.361 106.153 112.365 106.258 112.374C106.366 112.379 106.455 112.389 106.526 112.403V113.822C106.461 113.8 106.357 113.78 106.215 113.763C106.076 113.743 105.941 113.733 105.81 113.733C105.529 113.733 105.276 113.794 105.052 113.916C104.83 114.036 104.656 114.202 104.528 114.415C104.4 114.628 104.336 114.874 104.336 115.152V119H102.793ZM108.718 119.132C108.303 119.132 107.929 119.058 107.597 118.911C107.267 118.76 107.006 118.538 106.813 118.246C106.622 117.953 106.527 117.592 106.527 117.163C106.527 116.794 106.595 116.489 106.732 116.247C106.868 116.006 107.054 115.812 107.29 115.668C107.526 115.523 107.791 115.413 108.087 115.339C108.385 115.263 108.693 115.207 109.012 115.173C109.395 115.134 109.706 115.098 109.945 115.067C110.183 115.033 110.357 114.982 110.465 114.913C110.575 114.842 110.631 114.733 110.631 114.585V114.56C110.631 114.239 110.536 113.99 110.345 113.814C110.155 113.638 109.881 113.55 109.523 113.55C109.145 113.55 108.845 113.632 108.624 113.797C108.405 113.962 108.257 114.156 108.181 114.381L106.74 114.176C106.854 113.778 107.041 113.446 107.303 113.179C107.564 112.909 107.884 112.707 108.262 112.574C108.639 112.438 109.057 112.369 109.514 112.369C109.83 112.369 110.144 112.406 110.456 112.48C110.769 112.554 111.054 112.676 111.313 112.847C111.571 113.014 111.779 113.243 111.935 113.533C112.094 113.822 112.174 114.185 112.174 114.619V119H110.691V118.101H110.639C110.546 118.283 110.414 118.453 110.243 118.612C110.075 118.768 109.864 118.895 109.608 118.991C109.355 119.085 109.058 119.132 108.718 119.132ZM109.118 117.999C109.428 117.999 109.696 117.937 109.924 117.815C110.151 117.69 110.325 117.526 110.448 117.321C110.573 117.116 110.635 116.893 110.635 116.652V115.881C110.587 115.92 110.504 115.957 110.388 115.991C110.274 116.026 110.147 116.055 110.004 116.081C109.862 116.107 109.722 116.129 109.583 116.149C109.443 116.169 109.323 116.186 109.22 116.2C108.99 116.232 108.784 116.283 108.602 116.354C108.421 116.425 108.277 116.524 108.172 116.652C108.067 116.777 108.014 116.939 108.014 117.138C108.014 117.422 108.118 117.636 108.325 117.781C108.533 117.926 108.797 117.999 109.118 117.999ZM115.554 119.115C115.039 119.115 114.579 118.983 114.173 118.719C113.767 118.455 113.446 118.071 113.21 117.568C112.974 117.065 112.856 116.455 112.856 115.736C112.856 115.009 112.975 114.395 113.214 113.895C113.456 113.392 113.781 113.013 114.19 112.757C114.599 112.499 115.055 112.369 115.558 112.369C115.941 112.369 116.257 112.435 116.504 112.565C116.751 112.693 116.947 112.848 117.092 113.03C117.237 113.209 117.349 113.378 117.429 113.537H117.493V110.273H119.039V119H117.522V117.969H117.429C117.349 118.128 117.234 118.297 117.083 118.476C116.933 118.652 116.734 118.803 116.487 118.928C116.24 119.053 115.929 119.115 115.554 119.115ZM115.984 117.849C116.311 117.849 116.589 117.761 116.819 117.585C117.049 117.406 117.224 117.158 117.343 116.839C117.463 116.521 117.522 116.151 117.522 115.727C117.522 115.304 117.463 114.936 117.343 114.624C117.227 114.311 117.054 114.068 116.824 113.895C116.596 113.722 116.316 113.635 115.984 113.635C115.64 113.635 115.353 113.724 115.123 113.903C114.893 114.082 114.72 114.33 114.603 114.645C114.487 114.96 114.429 115.321 114.429 115.727C114.429 116.136 114.487 116.501 114.603 116.822C114.723 117.141 114.897 117.392 115.127 117.577C115.36 117.759 115.646 117.849 115.984 117.849ZM122.981 119.128C122.325 119.128 121.758 118.991 121.281 118.719C120.806 118.443 120.441 118.054 120.186 117.551C119.93 117.045 119.802 116.45 119.802 115.766C119.802 115.092 119.93 114.501 120.186 113.993C120.444 113.482 120.805 113.084 121.268 112.8C121.731 112.513 122.275 112.369 122.9 112.369C123.303 112.369 123.684 112.435 124.042 112.565C124.403 112.693 124.721 112.892 124.997 113.162C125.275 113.432 125.494 113.776 125.653 114.193C125.812 114.608 125.891 115.102 125.891 115.676V116.149H120.526V115.109H124.413C124.41 114.814 124.346 114.551 124.221 114.321C124.096 114.088 123.921 113.905 123.697 113.771C123.475 113.638 123.217 113.571 122.921 113.571C122.606 113.571 122.329 113.648 122.09 113.801C121.852 113.952 121.666 114.151 121.532 114.398C121.401 114.642 121.335 114.911 121.332 115.203V116.111C121.332 116.491 121.401 116.818 121.541 117.091C121.68 117.361 121.874 117.568 122.124 117.713C122.374 117.855 122.667 117.926 123.002 117.926C123.227 117.926 123.43 117.895 123.612 117.832C123.793 117.767 123.951 117.672 124.085 117.547C124.218 117.422 124.319 117.267 124.387 117.082L125.828 117.244C125.737 117.625 125.563 117.957 125.308 118.241C125.055 118.523 124.731 118.741 124.336 118.898C123.941 119.051 123.489 119.128 122.981 119.128Z" fill="#4157FE"/>
<path d="M138.727 112.333H133.667C133.49 112.333 133.32 112.263 133.195 112.138C133.07 112.013 133 111.843 133 111.667C133 111.49 133.07 111.32 133.195 111.195C133.32 111.07 133.49 111 133.667 111H140.333C140.42 111.001 140.507 111.019 140.587 111.053C140.75 111.121 140.879 111.25 140.947 111.413C140.981 111.493 140.999 111.58 141 111.667V118.333C141 118.51 140.93 118.68 140.805 118.805C140.68 118.93 140.51 119 140.333 119C140.157 119 139.987 118.93 139.862 118.805C139.737 118.68 139.667 118.51 139.667 118.333V113.273L134.14 118.807C134.078 118.869 134.004 118.919 133.923 118.953C133.842 118.986 133.755 119.004 133.667 119.004C133.579 119.004 133.492 118.986 133.41 118.953C133.329 118.919 133.255 118.869 133.193 118.807C133.131 118.745 133.081 118.671 133.047 118.59C133.014 118.508 132.996 118.421 132.996 118.333C132.996 118.245 133.014 118.158 133.047 118.077C133.081 117.996 133.131 117.922 133.193 117.86L138.727 112.333Z" fill="#4157FE"/>
<path d="M173 26L165 34M165 26L173 34" stroke="#191F38" stroke-linecap="round" stroke-linejoin="round"/>
</g>
</g>
<defs>
<filter id="filter0_dd_1836_45154" x="-5" y="0" width="210" height="161" filterUnits="userSpaceOnUse" color-interpolation-filters="sRGB">
<feFlood flood-opacity="0" result="BackgroundImageFix"/>
<feColorMatrix in="SourceAlpha" type="matrix" values="0 0 0 0 0 0 0 0 0 0 0 0 0 0 0 0 0 0 127 0" result="hardAlpha"/>
<feOffset dy="8"/>
<feGaussianBlur stdDeviation="8"/>
<feColorMatrix type="matrix" values="0 0 0 0 0 0 0 0 0 0 0 0 0 0 0 0 0 0 0.08 0"/>
<feBlend mode="normal" in2="BackgroundImageFix" result="effect1_dropShadow_1836_45154"/>
<feColorMatrix in="SourceAlpha" type="matrix" values="0 0 0 0 0 0 0 0 0 0 0 0 0 0 0 0 0 0 127 0" result="hardAlpha"/>
<feOffset/>
<feGaussianBlur stdDeviation="2"/>
<feColorMatrix type="matrix" values="0 0 0 0 0 0 0 0 0 0 0 0 0 0 0 0 0 0 0.04 0"/>
<feBlend mode="normal" in2="effect1_dropShadow_1836_45154" result="effect2_dropShadow_1836_45154"/>
<feBlend mode="normal" in="SourceGraphic" in2="effect2_dropShadow_1836_45154" result="shape"/>
</filter>
<filter id="filter1_f_1836_45154" x="-65" y="-70" width="219" height="219" filterUnits="userSpaceOnUse" color-interpolation-filters="sRGB">
<feFlood flood-opacity="0" result="BackgroundImageFix"/>
<feBlend mode="normal" in="SourceGraphic" in2="BackgroundImageFix" result="shape"/>
<feGaussianBlur stdDeviation="27" result="effect1_foregroundBlur_1836_45154"/>
</filter>
<clipPath id="clip0_1836_45154">
<rect x="11" y="8" width="178" height="129" rx="12" fill="white"/>
</clipPath>
</defs>
</svg>
