<svg width="24" height="24" viewBox="0 0 24 24" fill="none" xmlns="http://www.w3.org/2000/svg">
<path fill-rule="evenodd" clip-rule="evenodd" d="M6.264 17.736C6.09546 17.5673 6.00079 17.3385 6.00079 17.1C6.00079 16.8615 6.09546 16.6328 6.264 16.464L14.928 7.8L8.1 7.8C7.86131 7.8 7.63239 7.70518 7.4636 7.5364C7.29482 7.36761 7.2 7.1387 7.2 6.9C7.2 6.66131 7.29482 6.43239 7.46361 6.2636C7.63239 6.09482 7.86131 6 8.1 6L17.1 6C17.3387 6 17.5676 6.09482 17.7364 6.2636C17.9052 6.43239 18 6.66131 18 6.9L18 15.9C18 16.1387 17.9052 16.3676 17.7364 16.5364C17.5676 16.7052 17.3387 16.8 17.1 16.8C16.8613 16.8 16.6324 16.7052 16.4636 16.5364C16.2948 16.3676 16.2 16.1387 16.2 15.9L16.2 9.072L7.536 17.736C7.36725 17.9045 7.1385 17.9992 6.9 17.9992C6.6615 17.9992 6.43275 17.9045 6.264 17.736Z" fill="#697588"/>
</svg>
