<svg width="16" height="16" viewBox="0 0 16 16" fill="none" xmlns="http://www.w3.org/2000/svg">
<mask id="path-1-inside-1_3194_55405" fill="white">
<path d="M6.38094 12.5467C6.25427 12.5467 6.1276 12.5001 6.0276 12.4001L1.98094 8.35341C1.7876 8.16008 1.7876 7.84008 1.98094 7.64674L6.0276 3.60008C6.22094 3.40674 6.54094 3.40674 6.73427 3.60008C6.9276 3.79341 6.9276 4.11341 6.73427 4.30674L3.04094 8.00008L6.73427 11.6934C6.9276 11.8867 6.9276 12.2067 6.73427 12.4001C6.64094 12.5001 6.5076 12.5467 6.38094 12.5467Z"/>
</mask>
<path d="M6.38094 12.5467C6.25427 12.5467 6.1276 12.5001 6.0276 12.4001L1.98094 8.35341C1.7876 8.16008 1.7876 7.84008 1.98094 7.64674L6.0276 3.60008C6.22094 3.40674 6.54094 3.40674 6.73427 3.60008C6.9276 3.79341 6.9276 4.11341 6.73427 4.30674L3.04094 8.00008L6.73427 11.6934C6.9276 11.8867 6.9276 12.2067 6.73427 12.4001C6.64094 12.5001 6.5076 12.5467 6.38094 12.5467Z" fill="#191F38"/>
<path d="M6.0276 12.4001L5.3205 13.1072V13.1072L6.0276 12.4001ZM1.98094 8.35341L2.68804 7.6463H2.68804L1.98094 8.35341ZM1.98094 7.64674L2.68804 8.35385L2.68804 8.35385L1.98094 7.64674ZM6.0276 3.60008L5.3205 2.89297V2.89297L6.0276 3.60008ZM6.73427 4.30674L7.44138 5.01385V5.01385L6.73427 4.30674ZM3.04094 8.00008L2.33383 7.29297L1.62672 8.00008L2.33383 8.70718L3.04094 8.00008ZM6.73427 11.6934L6.02716 12.4005V12.4005L6.73427 11.6934ZM6.73427 12.4001L6.02716 11.693L6.01498 11.7052L6.00322 11.7178L6.73427 12.4001ZM6.38094 12.5467V11.5467C6.50517 11.5467 6.63729 11.5956 6.73471 11.693L6.0276 12.4001L5.3205 13.1072C5.61792 13.4046 6.00337 13.5467 6.38094 13.5467V12.5467ZM6.0276 12.4001L6.73471 11.693L2.68804 7.6463L1.98094 8.35341L1.27383 9.06052L5.3205 13.1072L6.0276 12.4001ZM1.98094 8.35341L2.68804 7.6463C2.88524 7.8435 2.88524 8.15666 2.68804 8.35385L1.98094 7.64674L1.27383 6.93964C0.689973 7.5235 0.689973 8.47666 1.27383 9.06052L1.98094 8.35341ZM1.98094 7.64674L2.68804 8.35385L6.73471 4.30718L6.0276 3.60008L5.3205 2.89297L1.27383 6.93964L1.98094 7.64674ZM6.0276 3.60008L6.73471 4.30718C6.53752 4.50438 6.22435 4.50438 6.02716 4.30718L6.73427 3.60008L7.44138 2.89297C6.85752 2.30911 5.90435 2.30911 5.3205 2.89297L6.0276 3.60008ZM6.73427 3.60008L6.02716 4.30718C5.82997 4.10999 5.82997 3.79683 6.02716 3.59964L6.73427 4.30674L7.44138 5.01385C8.02524 4.42999 8.02524 3.47683 7.44138 2.89297L6.73427 3.60008ZM6.73427 4.30674L6.02716 3.59964L2.33383 7.29297L3.04094 8.00008L3.74804 8.70718L7.44138 5.01385L6.73427 4.30674ZM3.04094 8.00008L2.33383 8.70718L6.02716 12.4005L6.73427 11.6934L7.44138 10.9863L3.74804 7.29297L3.04094 8.00008ZM6.73427 11.6934L6.02716 12.4005C5.82997 12.2033 5.82997 11.8902 6.02716 11.693L6.73427 12.4001L7.44138 13.1072C8.02524 12.5233 8.02524 11.5702 7.44138 10.9863L6.73427 11.6934ZM6.73427 12.4001L6.00322 11.7178C6.12939 11.5826 6.27833 11.5467 6.38094 11.5467V12.5467V13.5467C6.73688 13.5467 7.15249 13.4176 7.46533 13.0824L6.73427 12.4001Z" fill="#191F38" mask="url(#path-1-inside-1_3194_55405)"/>
<mask id="path-3-inside-2_3194_55405" fill="white">
<path d="M13.6673 8.5H2.44727C2.17393 8.5 1.94727 8.27333 1.94727 8C1.94727 7.72667 2.17393 7.5 2.44727 7.5H13.6673C13.9406 7.5 14.1673 7.72667 14.1673 8C14.1673 8.27333 13.9406 8.5 13.6673 8.5Z"/>
</mask>
<path d="M13.6673 8.5V7.5H2.44727V8.5V9.5H13.6673V8.5ZM2.44727 8.5V7.5C2.72622 7.5 2.94727 7.72105 2.94727 8H1.94727H0.947266C0.947266 8.82562 1.62165 9.5 2.44727 9.5V8.5ZM1.94727 8H2.94727C2.94727 8.27895 2.72622 8.5 2.44727 8.5V7.5V6.5C1.62165 6.5 0.947266 7.17438 0.947266 8H1.94727ZM2.44727 7.5V8.5H13.6673V7.5V6.5H2.44727V7.5ZM13.6673 7.5V8.5C13.3883 8.5 13.1673 8.27895 13.1673 8H14.1673H15.1673C15.1673 7.17438 14.4929 6.5 13.6673 6.5V7.5ZM14.1673 8H13.1673C13.1673 7.72105 13.3883 7.5 13.6673 7.5V8.5V9.5C14.4929 9.5 15.1673 8.82562 15.1673 8H14.1673Z" fill="#191F38" mask="url(#path-3-inside-2_3194_55405)"/>
</svg>
