<svg width="16" height="16" viewBox="0 0 16 16" fill="none" xmlns="http://www.w3.org/2000/svg">
<path d="M8.24731 1.43331L14.2473 3.83329C14.4806 3.92663 14.6673 4.20662 14.6673 4.45329V6.66663C14.6673 7.03329 14.3673 7.33329 14.0007 7.33329H2.00065C1.63398 7.33329 1.33398 7.03329 1.33398 6.66663V4.45329C1.33398 4.20662 1.52065 3.92663 1.75399 3.83329L7.75399 1.43331C7.88732 1.37998 8.11398 1.37998 8.24731 1.43331Z" stroke="#4157FE" stroke-width="1.25" stroke-miterlimit="10" stroke-linecap="round" stroke-linejoin="round"/>
<path d="M14.6673 14.6667H1.33398V12.6667C1.33398 12.3 1.63398 12 2.00065 12H14.0007C14.3673 12 14.6673 12.3 14.6673 12.6667V14.6667Z" stroke="#4157FE" stroke-width="1.25" stroke-miterlimit="10" stroke-linecap="round" stroke-linejoin="round"/>
<path d="M2.66602 12V7.33337" stroke="#4157FE" stroke-width="1.25" stroke-miterlimit="10" stroke-linecap="round" stroke-linejoin="round"/>
<path d="M5.33398 12V7.33337" stroke="#4157FE" stroke-width="1.15909" stroke-miterlimit="10" stroke-linecap="round" stroke-linejoin="round"/>
<path d="M8 12V7.33337" stroke="#4157FE" stroke-width="1.15909" stroke-miterlimit="10" stroke-linecap="round" stroke-linejoin="round"/>
<path d="M10.666 12V7.33337" stroke="#4157FE" stroke-width="1.15909" stroke-miterlimit="10" stroke-linecap="round" stroke-linejoin="round"/>
<path d="M13.334 12V7.33337" stroke="#4157FE" stroke-width="1.15909" stroke-miterlimit="10" stroke-linecap="round" stroke-linejoin="round"/>
<path d="M0.666016 14.6666H15.3327" stroke="#4157FE" stroke-width="1.15909" stroke-miterlimit="10" stroke-linecap="round" stroke-linejoin="round"/>
<path d="M8 5.66663C8.55228 5.66663 9 5.21891 9 4.66663C9 4.11434 8.55228 3.66663 8 3.66663C7.44772 3.66663 7 4.11434 7 4.66663C7 5.21891 7.44772 5.66663 8 5.66663Z" stroke="#4157FE" stroke-width="1.15909" stroke-miterlimit="10" stroke-linecap="round" stroke-linejoin="round"/>
</svg>
