<svg width="14" height="13" viewBox="0 0 14 13" fill="none" xmlns="http://www.w3.org/2000/svg">
<path d="M5.209 12.3279C4.62891 12.1957 4.0717 11.978 3.55567 11.6819M7.87567 0.625244C9.2011 0.927959 10.3845 1.6717 11.2321 2.73471C12.0797 3.79772 12.5413 5.11701 12.5413 6.47658C12.5413 7.83614 12.0797 9.15543 11.2321 10.2184C10.3845 11.2815 9.2011 12.0252 7.87567 12.3279M1.595 9.87191C1.23173 9.34333 0.955556 8.75993 0.777 8.14391M0.625 5.47658C0.731667 4.84324 0.937 4.24324 1.225 3.69324L1.33767 3.48991M3.147 1.52924C3.77113 1.1005 4.47078 0.793764 5.209 0.625244" stroke="#4157FE" stroke-width="1.25" stroke-linecap="round" stroke-linejoin="round"/>
<path d="M4.54199 6.47664L5.87533 7.80998L8.54199 5.14331" stroke="#4157FE" stroke-width="1.25" stroke-linecap="round" stroke-linejoin="round"/>
</svg>
