<svg width="17" height="17" viewBox="0 0 17 17" fill="none" xmlns="http://www.w3.org/2000/svg">
<g clip-path="url(#clip0_3025_17117)">
<path d="M6.60882 13.5652V12.5217H3.13056C2.74795 12.5217 2.40013 12.3687 2.14969 12.1113C1.8923 11.8609 1.73926 11.513 1.73926 11.1304C1.73926 10.4139 2.29578 9.81566 2.99839 9.74609C3.04013 9.73914 3.08187 9.73914 3.13056 9.73914H13.5653C13.614 9.73914 13.6558 9.73914 13.6975 9.74609C14.0314 9.77392 14.3236 9.92001 14.5462 10.1496C14.8314 10.4278 14.9845 10.8244 14.9497 11.2557C14.8871 11.9861 14.2262 12.5217 13.4888 12.5217H10.0871V13.5652C10.0871 14.5252 9.30795 15.3044 8.34795 15.3044C7.38795 15.3044 6.60882 14.5252 6.60882 13.5652Z" stroke="#191F38" stroke-width="1.25" stroke-linecap="round" stroke-linejoin="round"/>
<path d="M14.0312 3.68696L13.6973 9.74609C13.6556 9.73914 13.6138 9.73914 13.5651 9.73914H3.13034C3.08164 9.73914 3.0399 9.73914 2.99816 9.74609L2.66425 3.68696C2.53903 2.45566 3.50599 1.39131 4.73729 1.39131H11.9582C13.1895 1.39131 14.1564 2.45566 14.0312 3.68696Z" stroke="#191F38" stroke-width="1.25" stroke-linecap="round" stroke-linejoin="round"/>
<path d="M5.55811 1.39131V4.86957" stroke="#191F38" stroke-width="1.25" stroke-linecap="round" stroke-linejoin="round"/>
<path d="M8.34766 1.39131V2.78262" stroke="#191F38" stroke-width="1.25" stroke-linecap="round" stroke-linejoin="round"/>
</g>
<defs>
<clipPath id="clip0_3025_17117">
<rect width="16.6957" height="16.6957" fill="white"/>
</clipPath>
</defs>
</svg>
