<svg width="14" height="14" viewBox="0 0 14 14" fill="none" xmlns="http://www.w3.org/2000/svg">
<path d="M4.6665 1.16699V2.91699" stroke="#697588" stroke-width="1.25" stroke-miterlimit="10" stroke-linecap="round" stroke-linejoin="round"/>
<path d="M9.3335 1.16699V2.91699" stroke="#697588" stroke-width="1.25" stroke-miterlimit="10" stroke-linecap="round" stroke-linejoin="round"/>
<path d="M2.0415 5.30273H11.9582" stroke="#697588" stroke-width="1.25" stroke-miterlimit="10" stroke-linecap="round" stroke-linejoin="round"/>
<path d="M11.2058 9.19949L9.14078 11.2645C9.05912 11.3462 8.98327 11.4978 8.96577 11.6087L8.85494 12.3962C8.8141 12.682 9.01244 12.8803 9.29828 12.8395L10.0858 12.7287C10.1966 12.7112 10.3541 12.6353 10.4299 12.5537L12.4949 10.4887C12.8508 10.1328 13.0199 9.71867 12.4949 9.19367C11.9758 8.6745 11.5616 8.84366 11.2058 9.19949Z" stroke="#697588" stroke-width="1.25" stroke-miterlimit="10" stroke-linecap="round" stroke-linejoin="round"/>
<path d="M10.9082 9.49707C11.0832 10.1271 11.5732 10.6171 12.2032 10.7921" stroke="#697588" stroke-width="1.25" stroke-miterlimit="10" stroke-linecap="round" stroke-linejoin="round"/>
<path d="M7 12.8337H4.66667C2.625 12.8337 1.75 11.667 1.75 9.91699V4.95866C1.75 3.20866 2.625 2.04199 4.66667 2.04199H9.33333C11.375 2.04199 12.25 3.20866 12.25 4.95866V7.00033" stroke="#697588" stroke-width="1.25" stroke-miterlimit="10" stroke-linecap="round" stroke-linejoin="round"/>
<path d="M6.99745 7.99186H7.00269" stroke="#697588" stroke-width="1.25" stroke-linecap="round" stroke-linejoin="round"/>
<path d="M4.83827 7.99186H4.84351" stroke="#697588" stroke-width="1.25" stroke-linecap="round" stroke-linejoin="round"/>
<path d="M4.83827 9.74186H4.84351" stroke="#697588" stroke-width="1.25" stroke-linecap="round" stroke-linejoin="round"/>
</svg>
