<svg width="16" height="16" viewBox="0 0 16 16" fill="none" xmlns="http://www.w3.org/2000/svg">
<path d="M6.00065 14.6667H10.0007C13.334 14.6667 14.6673 13.3334 14.6673 10V6.00004C14.6673 2.66671 13.334 1.33337 10.0007 1.33337H6.00065C2.66732 1.33337 1.33398 2.66671 1.33398 6.00004V10C1.33398 13.3334 2.66732 14.6667 6.00065 14.6667Z" stroke="#4157FE" stroke-width="1.25" stroke-linecap="round" stroke-linejoin="round"/>
<path d="M10.3333 12.3333C11.0667 12.3333 11.6667 11.7333 11.6667 11V4.99996C11.6667 4.26663 11.0667 3.66663 10.3333 3.66663C9.6 3.66663 9 4.26663 9 4.99996V11C9 11.7333 9.59333 12.3333 10.3333 12.3333Z" stroke="#4157FE" stroke-width="1.25" stroke-linecap="round" stroke-linejoin="round"/>
<path d="M5.66732 12.3334C6.40065 12.3334 7.00065 11.7334 7.00065 11V8.66671C7.00065 7.93337 6.40065 7.33337 5.66732 7.33337C4.93398 7.33337 4.33398 7.93337 4.33398 8.66671V11C4.33398 11.7334 4.92732 12.3334 5.66732 12.3334Z" stroke="#4157FE" stroke-width="1.25" stroke-linecap="round" stroke-linejoin="round"/>
</svg>
