<svg width="18" height="18" viewBox="0 0 18 18" fill="none" xmlns="http://www.w3.org/2000/svg">
<path d="M12.75 6.75C12.75 9.6525 10.23 12 7.125 12L6.42751 12.84L6.015 13.335C5.6625 13.755 4.9875 13.665 4.755 13.1625L3.75 10.95C2.385 9.98998 1.5 8.4675 1.5 6.75C1.5 3.8475 4.02 1.5 7.125 1.5C9.39 1.5 11.3475 2.75251 12.225 4.55251C12.5625 5.22001 12.75 5.9625 12.75 6.75Z" fill="white" stroke="#292D32" stroke-width="1.5" stroke-linecap="round" stroke-linejoin="round"/>
<path d="M16.5002 9.64522C16.5002 11.3627 15.6152 12.8852 14.2502 13.8452L13.2452 16.0577C13.0127 16.5602 12.3377 16.6577 11.9852 16.2302L10.8752 14.8952C9.06023 14.8952 7.44023 14.0927 6.42773 12.8402L7.12523 12.0002C10.2302 12.0002 12.7502 9.65273 12.7502 6.75023C12.7502 5.96273 12.5627 5.22023 12.2252 4.55273C14.6777 5.11523 16.5002 7.18522 16.5002 9.64522Z" fill="white" stroke="#292D32" stroke-width="1.5" stroke-linecap="round" stroke-linejoin="round"/>
<path d="M5.25 6.75H9" stroke="#292D32" stroke-width="1.5" stroke-linecap="round" stroke-linejoin="round"/>
</svg>
