<svg width="18" height="18" viewBox="0 0 18 18" fill="none" xmlns="http://www.w3.org/2000/svg">
<path d="M15.8091 6.43503V11.565C15.8091 12.405 15.3591 13.185 14.6316 13.6125L10.1766 16.185C9.44914 16.605 8.54914 16.605 7.81414 16.185L3.35914 13.6125C2.63164 13.1925 2.18164 12.4125 2.18164 11.565V6.43503C2.18164 5.59503 2.63164 4.81499 3.35914 4.38749L7.81414 1.815C8.54164 1.395 9.44164 1.395 10.1766 1.815L14.6316 4.38749C15.3591 4.81499 15.8091 5.58753 15.8091 6.43503Z" stroke="#191F38" stroke-width="1.5" stroke-linecap="round" stroke-linejoin="round"/>
<path d="M8.99945 8.24986C9.96457 8.24986 10.747 7.46747 10.747 6.50235C10.747 5.53723 9.96457 4.75488 8.99945 4.75488C8.03434 4.75488 7.25195 5.53723 7.25195 6.50235C7.25195 7.46747 8.03434 8.24986 8.99945 8.24986Z" stroke="#191F38" stroke-width="1.5" stroke-linecap="round" stroke-linejoin="round"/>
<path d="M12 12.4948C12 11.1448 10.6575 10.0498 9 10.0498C7.3425 10.0498 6 11.1448 6 12.4948" stroke="#191F38" stroke-width="1.5" stroke-linecap="round" stroke-linejoin="round"/>
</svg>
