<svg width="16" height="16" viewBox="0 0 16 16" fill="none" xmlns="http://www.w3.org/2000/svg">
<path d="M4.66673 6.66624H6.66673V4.66624L4.3334 2.33291C5.07982 1.97643 5.9184 1.86011 6.73366 1.99999C7.54893 2.13987 8.30078 2.52906 8.88568 3.11396C9.47059 3.69886 9.85977 4.45071 9.99965 5.26598C10.1395 6.08124 10.0232 6.91982 9.66673 7.66624L13.6667 11.6662C13.9319 11.9315 14.0809 12.2912 14.0809 12.6662C14.0809 13.0413 13.9319 13.401 13.6667 13.6662C13.4015 13.9315 13.0418 14.0805 12.6667 14.0805C12.2917 14.0805 11.9319 13.9315 11.6667 13.6662L7.66673 9.66624C6.92031 10.0227 6.08173 10.139 5.26647 9.99916C4.4512 9.85929 3.69935 9.4701 3.11445 8.8852C2.52954 8.30029 2.14036 7.54844 2.00048 6.73318C1.8606 5.91791 1.97691 5.07933 2.3334 4.33291L4.66673 6.66624Z" stroke="#697588" stroke-linecap="round" stroke-linejoin="round"/>
</svg>
