<svg width="11" height="13" viewBox="0 0 11 13" fill="none" xmlns="http://www.w3.org/2000/svg">
<path d="M9.74613 0.178085C9.85549 0.287476 9.91693 0.435822 9.91693 0.590501C9.91693 0.745181 9.85549 0.893527 9.74613 1.00292L7.24188 3.50717H9.88088C10.023 3.50721 10.1603 3.55916 10.2668 3.65325C10.3734 3.74735 10.4419 3.87711 10.4596 4.01817C10.6014 5.14383 10.3748 6.28515 9.8137 7.27124C9.25257 8.25732 8.38709 9.0351 7.34688 9.48808L7.56622 10.366C7.58766 10.452 7.58924 10.5417 7.57083 10.6284C7.55241 10.715 7.5145 10.7964 7.45996 10.8662C7.40542 10.9361 7.33569 10.9925 7.25606 11.0314C7.17643 11.0703 7.08899 11.0905 7.00038 11.0905H3.50038C3.41178 11.0905 3.32434 11.0703 3.24471 11.0314C3.16508 10.9925 3.09535 10.9361 3.04081 10.8662C2.98627 10.7964 2.94835 10.715 2.92994 10.6284C2.91153 10.5417 2.91311 10.452 2.93455 10.366L3.15388 9.48808C2.11367 9.0351 1.2482 8.25732 0.687066 7.27124C0.125932 6.28515 -0.100661 5.14383 0.041218 4.01817C0.0588451 3.87711 0.127374 3.74735 0.233928 3.65325C0.340483 3.55916 0.47773 3.50721 0.619885 3.50717H2.67555L6.00463 0.178085C6.05844 0.12237 6.12281 0.0779309 6.19398 0.047359C6.26515 0.0167871 6.3417 0.000695084 6.41915 2.20247e-05C6.4966 -0.000651035 6.57342 0.0141083 6.64511 0.0434388C6.7168 0.0727693 6.78193 0.116084 6.8367 0.170854C6.89147 0.225625 6.93478 0.290755 6.96411 0.362445C6.99344 0.434134 7.0082 0.510948 7.00753 0.588402C7.00686 0.665857 6.99077 0.742402 6.96019 0.813571C6.92962 0.88474 6.88518 0.949107 6.82947 1.00292L4.32522 3.50717H5.59222L8.9213 0.178085C9.03069 0.0687266 9.17904 0.00729272 9.33372 0.00729272C9.4884 0.00729272 9.63674 0.0687266 9.74613 0.178085Z" fill="#059669"/>
</svg>
