<svg width="35" height="35" viewBox="0 0 35 35" fill="none" xmlns="http://www.w3.org/2000/svg">
<path opacity="0.4" d="M29.5626 14.6943H25.3951C21.9774 14.6943 19.1942 11.9111 19.1942 8.49342V4.32585C19.1942 3.53272 18.5453 2.88379 17.7521 2.88379H11.6378C7.19621 2.88379 3.60547 5.76792 3.60547 10.9161V23.6928C3.60547 28.841 7.19621 31.7251 11.6378 31.7251H22.9724C27.414 31.7251 31.0047 28.841 31.0047 23.6928V16.1364C31.0047 15.3432 30.3558 14.6943 29.5626 14.6943Z" fill="#FF7816"/>
<path d="M22.785 3.18725C22.1938 2.596 21.1699 2.99978 21.1699 3.82175V8.85456C21.1699 10.96 22.9581 12.7049 25.1356 12.7049C26.5056 12.7193 28.4091 12.7193 30.0386 12.7193C30.8606 12.7193 31.2932 11.7531 30.7164 11.1763C28.6398 9.08529 24.9193 5.3215 22.785 3.18725Z" fill="#FF7816"/>
<path d="M8.71733 25V17.7273H11.4446C12.0033 17.7273 12.4721 17.8314 12.8509 18.0398C13.232 18.2481 13.5196 18.5346 13.7138 18.8991C13.9103 19.2614 14.0085 19.6733 14.0085 20.1349C14.0085 20.6013 13.9103 21.0156 13.7138 21.3778C13.5173 21.7401 13.2273 22.0253 12.8438 22.2337C12.4602 22.4396 11.9879 22.5426 11.4268 22.5426H9.61932V21.4595H11.2493C11.576 21.4595 11.8435 21.4027 12.0518 21.2891C12.2602 21.1754 12.4141 21.0192 12.5135 20.8203C12.6153 20.6214 12.6662 20.393 12.6662 20.1349C12.6662 19.8769 12.6153 19.6496 12.5135 19.4531C12.4141 19.2566 12.259 19.1039 12.0483 18.995C11.84 18.8838 11.5713 18.8281 11.2422 18.8281H10.0348V25H8.71733ZM17.1174 25H14.6529V17.7273H17.1671C17.8891 17.7273 18.5094 17.8729 19.0279 18.1641C19.5487 18.4529 19.9488 18.8684 20.2282 19.4105C20.5075 19.9527 20.6472 20.6013 20.6472 21.3565C20.6472 22.1141 20.5063 22.7652 20.2246 23.3097C19.9453 23.8542 19.5416 24.272 19.0137 24.5632C18.4881 24.8544 17.856 25 17.1174 25ZM15.9703 23.8601H17.0534C17.5601 23.8601 17.9827 23.7678 18.3212 23.5831C18.6597 23.3961 18.9142 23.1179 19.0847 22.7486C19.2551 22.3769 19.3404 21.9129 19.3404 21.3565C19.3404 20.8002 19.2551 20.3385 19.0847 19.9716C18.9142 19.6023 18.6621 19.3265 18.3283 19.1442C17.9969 18.9595 17.5849 18.8672 17.0925 18.8672H15.9703V23.8601ZM21.399 25V17.7273H26.0581V18.8317H22.7164V20.8061H25.7385V21.9105H22.7164V25H21.399Z" fill="#A4541A"/>
</svg>
