<svg width="16" height="16" viewBox="0 0 16 16" fill="none" xmlns="http://www.w3.org/2000/svg">
<path d="M4.66602 10H5.99935C5.99935 10.72 6.91268 11.3333 7.99935 11.3333C9.08602 11.3333 9.99935 10.72 9.99935 10C9.99935 9.26667 9.30602 9 7.83935 8.64667C6.42602 8.29333 4.66602 7.85333 4.66602 6C4.66602 4.80667 5.64602 3.79333 6.99935 3.45333V2H8.99935V3.45333C10.3527 3.79333 11.3327 4.80667 11.3327 6H9.99935C9.99935 5.28 9.08602 4.66667 7.99935 4.66667C6.91268 4.66667 5.99935 5.28 5.99935 6C5.99935 6.73333 6.69268 7 8.15935 7.35333C9.57268 7.70667 11.3327 8.14667 11.3327 10C11.3327 11.1933 10.3527 12.2067 8.99935 12.5467V14H6.99935V12.5467C5.64602 12.2067 4.66602 11.1933 4.66602 10Z" fill="#697588"/>
</svg>
