<svg width="16" height="16" viewBox="0 0 16 16" fill="none" xmlns="http://www.w3.org/2000/svg">
<path d="M4.66797 10H6.0013C6.0013 10.72 6.91464 11.3333 8.0013 11.3333C9.08797 11.3333 10.0013 10.72 10.0013 10C10.0013 9.26667 9.30797 9 7.8413 8.64667C6.42797 8.29333 4.66797 7.85333 4.66797 6C4.66797 4.80667 5.64797 3.79333 7.0013 3.45333V2H9.0013V3.45333C10.3546 3.79333 11.3346 4.80667 11.3346 6H10.0013C10.0013 5.28 9.08797 4.66667 8.0013 4.66667C6.91464 4.66667 6.0013 5.28 6.0013 6C6.0013 6.73333 6.69464 7 8.1613 7.35333C9.57464 7.70667 11.3346 8.14667 11.3346 10C11.3346 11.1933 10.3546 12.2067 9.0013 12.5467V14H7.0013V12.5467C5.64797 12.2067 4.66797 11.1933 4.66797 10Z" fill="#059669"/>
</svg>
