<svg width="18" height="18" viewBox="0 0 18 18" fill="none" xmlns="http://www.w3.org/2000/svg">
<path d="M8.90982 11.2423C8.76732 11.2423 8.62482 11.1898 8.51232 11.0773L6.59232 9.15734C6.37482 8.93984 6.37482 8.57984 6.59232 8.36234C6.80982 8.14484 7.16982 8.14484 7.38732 8.36234L8.90982 9.88484L10.4323 8.36234C10.6498 8.14484 11.0098 8.14484 11.2273 8.36234C11.4448 8.57984 11.4448 8.93984 11.2273 9.15734L9.30732 11.0773C9.19482 11.1898 9.05232 11.2423 8.90982 11.2423Z" fill="#4157FE"/>
<path d="M8.91016 11.19C8.60266 11.19 8.34766 10.935 8.34766 10.6275V3C8.34766 2.6925 8.60266 2.4375 8.91016 2.4375C9.21766 2.4375 9.47266 2.6925 9.47266 3V10.6275C9.47266 10.935 9.21766 11.19 8.91016 11.19Z" fill="#4157FE"/>
<path d="M9 15.6973C5.1375 15.6973 2.4375 12.9973 2.4375 9.13477C2.4375 8.82727 2.6925 8.57227 3 8.57227C3.3075 8.57227 3.5625 8.82727 3.5625 9.13477C3.5625 12.3373 5.7975 14.5723 9 14.5723C12.2025 14.5723 14.4375 12.3373 14.4375 9.13477C14.4375 8.82727 14.6925 8.57227 15 8.57227C15.3075 8.57227 15.5625 8.82727 15.5625 9.13477C15.5625 12.9973 12.8625 15.6973 9 15.6973Z" fill="#4157FE"/>
</svg>
