<svg width="16" height="16" viewBox="0 0 16 16" fill="none" xmlns="http://www.w3.org/2000/svg">
<path d="M2 4.66667V3.33333C2 2.6 2.6 2 3.33333 2H4.66667M11.3333 2H12.6667C13.4 2 14 2.6 14 3.33333V4.66667M14 11.3333V12.6667C14 13.4 13.4 14 12.6667 14H11.3333M4.66667 14H3.33333C2.6 14 2 13.4 2 12.6667V11.3333" stroke="#697588" stroke-width="1.25" stroke-linecap="round" stroke-linejoin="round"/>
<path d="M8.66675 4.66699H5.33341C4.96522 4.66699 4.66675 4.96547 4.66675 5.33366V7.33366C4.66675 7.70185 4.96522 8.00033 5.33341 8.00033H8.66675C9.03494 8.00033 9.33341 7.70185 9.33341 7.33366V5.33366C9.33341 4.96547 9.03494 4.66699 8.66675 4.66699Z" stroke="#697588" stroke-width="1.25" stroke-linecap="round" stroke-linejoin="round"/>
<path d="M10.6667 8H7.33341C6.96522 8 6.66675 8.29848 6.66675 8.66667V10.6667C6.66675 11.0349 6.96522 11.3333 7.33341 11.3333H10.6667C11.0349 11.3333 11.3334 11.0349 11.3334 10.6667V8.66667C11.3334 8.29848 11.0349 8 10.6667 8Z" stroke="#697588" stroke-width="1.25" stroke-linecap="round" stroke-linejoin="round"/>
</svg>
