<svg width="12" height="12" viewBox="0 0 12 12" fill="none" xmlns="http://www.w3.org/2000/svg">
<path d="M7.79094 5.99996C7.79094 6.98996 6.99094 7.78996 6.00094 7.78996C5.01094 7.78996 4.21094 6.98996 4.21094 5.99996C4.21094 5.00996 5.01094 4.20996 6.00094 4.20996C6.99094 4.20996 7.79094 5.00996 7.79094 5.99996Z" stroke="#697588" stroke-width="1.25" stroke-linecap="round" stroke-linejoin="round"/>
<path d="M5.99992 10.135C7.76492 10.135 9.40992 9.09499 10.5549 7.29499C11.0049 6.58999 11.0049 5.40499 10.5549 4.69999C9.40992 2.89999 7.76492 1.85999 5.99992 1.85999C4.23492 1.85999 2.58992 2.89999 1.44492 4.69999C0.994922 5.40499 0.994922 6.58999 1.44492 7.29499C2.58992 9.09499 4.23492 10.135 5.99992 10.135Z" stroke="#697588" stroke-width="1.25" stroke-linecap="round" stroke-linejoin="round"/>
</svg>
