<svg width="16" height="16" viewBox="0 0 16 16" fill="none" xmlns="http://www.w3.org/2000/svg">
<path d="M3.59993 1.4H12.3999C13.1333 1.4 13.7333 2 13.7333 2.73333V4.2C13.7333 4.73334 13.3999 5.4 13.0666 5.73334L10.1999 8.26667C9.79993 8.6 9.53327 9.26667 9.53327 9.8V12.6667C9.53327 13.0667 9.2666 13.6 8.93327 13.8L7.99994 14.4C7.13327 14.9333 5.93327 14.3333 5.93327 13.2667V9.73334C5.93327 9.26667 5.6666 8.66667 5.39994 8.33333L2.8666 5.66667C2.53327 5.33334 2.2666 4.73334 2.2666 4.33334V2.8C2.2666 2 2.8666 1.4 3.59993 1.4Z" stroke="#697588" stroke-width="1.25" stroke-miterlimit="10" stroke-linecap="round" stroke-linejoin="round"/>
<path d="M7.28667 1.4L4 6.66667" stroke="#697588" stroke-width="1.25" stroke-miterlimit="10" stroke-linecap="round" stroke-linejoin="round"/>
</svg>
