<svg width="16" height="16" viewBox="0 0 16 16" fill="none" xmlns="http://www.w3.org/2000/svg">
<path d="M6.00065 12.6668C2.66732 13.6668 2.66732 11.0001 1.33398 10.6668M10.6673 14.6668V12.0868C10.6923 11.7689 10.6494 11.4493 10.5413 11.1493C10.4333 10.8493 10.2626 10.5757 10.0407 10.3468C12.134 10.1135 14.334 9.32012 14.334 5.68012C14.3338 4.74934 13.9758 3.85425 13.334 3.18012C13.6379 2.36579 13.6164 1.46569 13.274 0.666788C13.274 0.666788 12.4873 0.433455 10.6673 1.65345C9.13932 1.23934 7.52865 1.23934 6.00065 1.65345C4.18065 0.433455 3.39398 0.666788 3.39398 0.666788C3.05157 1.46569 3.03008 2.36579 3.33398 3.18012C2.6874 3.85925 2.329 4.76243 2.33398 5.70012C2.33398 9.31345 4.53398 10.1068 6.62732 10.3668C6.40798 10.5934 6.23883 10.8637 6.13086 11.1601C6.02289 11.4564 5.97852 11.7722 6.00065 12.0868V14.6668" stroke="#4157FE" stroke-width="1.25" stroke-linecap="round" stroke-linejoin="round"/>
</svg>
