<svg width="16" height="16" viewBox="0 0 16 16" fill="none" xmlns="http://www.w3.org/2000/svg">
<path d="M8.00016 14.6663C11.6821 14.6663 14.6668 11.6816 14.6668 7.99967C14.6668 4.31778 11.6821 1.33301 8.00016 1.33301C4.31826 1.33301 1.3335 4.31778 1.3335 7.99967C1.3335 11.6816 4.31826 14.6663 8.00016 14.6663Z" stroke="#4157FE" stroke-width="1.25" stroke-linecap="round" stroke-linejoin="round"/>
<path d="M5.33324 2H5.9999C4.6999 5.89333 4.6999 10.1067 5.9999 14H5.33324" stroke="#4157FE" stroke-width="1.25" stroke-linecap="round" stroke-linejoin="round"/>
<path d="M10 2C11.3 5.89333 11.3 10.1067 10 14" stroke="#4157FE" stroke-width="1.25" stroke-linecap="round" stroke-linejoin="round"/>
<path d="M2 10.6667V10C5.89333 11.3 10.1067 11.3 14 10V10.6667" stroke="#4157FE" stroke-width="1.25" stroke-linecap="round" stroke-linejoin="round"/>
<path d="M2 6.00039C5.89333 4.70039 10.1067 4.70039 14 6.00039" stroke="#4157FE" stroke-width="1.25" stroke-linecap="round" stroke-linejoin="round"/>
</svg>
