<svg width="16" height="16" viewBox="0 0 16 16" fill="none" xmlns="http://www.w3.org/2000/svg">
<path d="M5.16634 1.33334V5.2H1.33301C1.33301 2.79334 2.76634 1.34667 5.16634 1.33334Z" fill="#4157FE"/>
<path d="M14.6663 5.2H10.833V1.33334C13.233 1.34667 14.6663 2.79334 14.6663 5.2Z" fill="#4157FE"/>
<path d="M14.6663 10.8667C14.6397 13.2333 13.213 14.6533 10.833 14.6667V10.8667H14.6663Z" fill="#4157FE"/>
<path d="M5.16634 10.8667V14.6667C2.78634 14.6533 1.35967 13.2333 1.33301 10.8667H5.16634Z" fill="#4157FE"/>
<path d="M5.16634 6.2H1.33301V9.86666H5.16634V6.2Z" fill="#4157FE"/>
<path d="M14.6663 6.2H10.833V9.86666H14.6663V6.2Z" fill="#4157FE"/>
<path d="M9.83366 6.2H6.16699V9.86666H9.83366V6.2Z" fill="#4157FE"/>
<path d="M9.83366 1.33334H6.16699V5.2H9.83366V1.33334Z" fill="#4157FE"/>
<path d="M9.83366 10.8667H6.16699V14.6667H9.83366V10.8667Z" fill="#4157FE"/>
</svg>
