<svg width="16" height="16" viewBox="0 0 16 16" fill="none" xmlns="http://www.w3.org/2000/svg">
<path d="M4.875 14.0295C3.95455 13.9705 3.26873 13.6645 2.80176 13.1975C2.28045 12.6761 1.95801 11.8821 1.95801 10.7932V5.2063C1.95806 4.11741 2.2804 3.32336 2.80176 2.802C3.26875 2.33501 3.95451 2.02803 4.875 1.96899V14.0295Z" fill="#4157FE" stroke="#4157FE" stroke-width="1.25"/>
<path d="M10.793 1.95825C11.882 1.95825 12.6768 2.2806 13.1982 2.802C13.7195 3.32337 14.0419 4.11752 14.042 5.2063V6.87524H7.125V1.95825H10.793Z" fill="#4157FE" stroke="#4157FE" stroke-width="1.25"/>
<path d="M14.042 9.125V10.793C14.042 11.882 13.7196 12.6768 13.1982 13.1982C12.6768 13.7196 11.882 14.042 10.793 14.042H7.125V9.125H14.042Z" fill="#4157FE" stroke="#4157FE" stroke-width="1.25"/>
</svg>
