<svg width="14" height="14" viewBox="0 0 14 14" fill="none" xmlns="http://www.w3.org/2000/svg">
<path d="M0.625 3.29167V1.95833C0.625 1.225 1.225 0.625 1.95833 0.625H3.29167M9.95833 0.625H11.2917C12.025 0.625 12.625 1.225 12.625 1.95833V3.29167M12.625 9.95833V11.2917C12.625 12.025 12.025 12.625 11.2917 12.625H9.95833M3.29167 12.625H1.95833C1.225 12.625 0.625 12.025 0.625 11.2917V9.95833" stroke="#697588" stroke-width="1.25" stroke-linecap="round" stroke-linejoin="round"/>
<path d="M7.29199 3.29167H3.95866C3.59047 3.29167 3.29199 3.59015 3.29199 3.95834V5.95834C3.29199 6.32653 3.59047 6.625 3.95866 6.625H7.29199C7.66018 6.625 7.95866 6.32653 7.95866 5.95834V3.95834C7.95866 3.59015 7.66018 3.29167 7.29199 3.29167Z" stroke="#697588" stroke-width="1.25" stroke-linecap="round" stroke-linejoin="round"/>
<path d="M9.29199 6.625H5.95866C5.59047 6.625 5.29199 6.92348 5.29199 7.29167V9.29167C5.29199 9.65986 5.59047 9.95833 5.95866 9.95833H9.29199C9.66018 9.95833 9.95866 9.65986 9.95866 9.29167V7.29167C9.95866 6.92348 9.66018 6.625 9.29199 6.625Z" stroke="#697588" stroke-width="1.25" stroke-linecap="round" stroke-linejoin="round"/>
</svg>
