<svg width="18" height="18" viewBox="0 0 18 18" fill="none" xmlns="http://www.w3.org/2000/svg">
<path d="M13.5 14.1453H12.93C12.33 14.1453 11.76 14.3778 11.34 14.7978L10.0575 16.0653C9.47248 16.6428 8.52001 16.6428 7.93501 16.0653L6.6525 14.7978C6.2325 14.3778 5.655 14.1453 5.0625 14.1453H4.5C3.255 14.1453 2.25 13.1478 2.25 11.9178V3.73529C2.25 2.50529 3.255 1.50781 4.5 1.50781H13.5C14.745 1.50781 15.75 2.50529 15.75 3.73529V11.9178C15.75 13.1403 14.745 14.1453 13.5 14.1453Z" stroke="#191F38" stroke-width="1.5" stroke-miterlimit="10" stroke-linecap="round" stroke-linejoin="round"/>
<path d="M8.99947 7.49986C9.96458 7.49986 10.747 6.71747 10.747 5.75235C10.747 4.78723 9.96458 4.00488 8.99947 4.00488C8.03435 4.00488 7.25195 4.78723 7.25195 5.75235C7.25195 6.71747 8.03435 7.49986 8.99947 7.49986Z" stroke="#191F38" stroke-width="1.5" stroke-linecap="round" stroke-linejoin="round"/>
<path d="M12 11.7448C12 10.3948 10.6575 9.2998 9 9.2998C7.3425 9.2998 6 10.3948 6 11.7448" stroke="#191F38" stroke-width="1.5" stroke-linecap="round" stroke-linejoin="round"/>
</svg>
