<svg width="16" height="16" viewBox="0 0 16 16" fill="none" xmlns="http://www.w3.org/2000/svg">
<path d="M7.16594 1.63338C7.6326 1.24005 8.38594 1.24005 8.83927 1.63338L9.8926 2.53338C10.0926 2.70005 10.4726 2.84005 10.7393 2.84005H11.8726C12.5793 2.84005 13.1593 3.42005 13.1593 4.12671V5.26005C13.1593 5.52671 13.2993 5.90005 13.4659 6.10005L14.3659 7.15338C14.7593 7.62005 14.7593 8.37338 14.3659 8.82671L13.4659 9.88005C13.2993 10.08 13.1593 10.4534 13.1593 10.72V11.8534C13.1593 12.56 12.5793 13.14 11.8726 13.14H10.7393C10.4726 13.14 10.0993 13.28 9.89927 13.4467L8.84594 14.3467C8.37927 14.74 7.62594 14.74 7.1726 14.3467L6.11927 13.4467C5.91927 13.28 5.53927 13.14 5.27927 13.14H4.1126C3.40594 13.14 2.82594 12.56 2.82594 11.8534V10.7134C2.82594 10.4534 2.6926 10.0734 2.52594 9.88005L1.62594 8.82005C1.23927 8.36005 1.23927 7.61338 1.62594 7.15338L2.52594 6.09338C2.6926 5.89338 2.82594 5.52005 2.82594 5.26005V4.13338C2.82594 3.42671 3.40594 2.84671 4.1126 2.84671H5.26594C5.5326 2.84671 5.90594 2.70671 6.10594 2.54005L7.16594 1.63338Z" stroke="#4157FE" stroke-width="1.25" stroke-linecap="round" stroke-linejoin="round"/>
<path d="M8 5.41992V8.63992" stroke="#4157FE" stroke-width="1.25" stroke-linecap="round" stroke-linejoin="round"/>
<path d="M7.99609 10.6667H8.00208" stroke="#4157FE" stroke-width="1.25" stroke-linecap="round" stroke-linejoin="round"/>
</svg>
