<svg width="16" height="16" viewBox="0 0 16 16" fill="none" xmlns="http://www.w3.org/2000/svg">
<path d="M6.00065 14.6666H10.0007C13.334 14.6666 14.6673 13.3333 14.6673 9.99992V5.99992C14.6673 2.66659 13.334 1.33325 10.0007 1.33325H6.00065C2.66732 1.33325 1.33398 2.66659 1.33398 5.99992V9.99992C1.33398 13.3333 2.66732 14.6666 6.00065 14.6666Z" stroke="#4157FE" stroke-width="0.965909" stroke-linecap="round" stroke-linejoin="round"/>
<path d="M7.99935 10.3334C9.28801 10.3334 10.3327 9.28875 10.3327 8.00008C10.3327 6.71142 9.28801 5.66675 7.99935 5.66675C6.71068 5.66675 5.66602 6.71142 5.66602 8.00008C5.66602 9.28875 6.71068 10.3334 7.99935 10.3334Z" stroke="#4157FE" stroke-width="0.965909" stroke-linecap="round" stroke-linejoin="round"/>
<path d="M11.7581 4.66659H11.7658" stroke="#4157FE" stroke-width="0.965909" stroke-linecap="round" stroke-linejoin="round"/>
</svg>
