<svg width="16" height="16" viewBox="0 0 16 16" fill="none" xmlns="http://www.w3.org/2000/svg">
<path d="M10.6673 5.33325C11.7282 5.33325 12.7456 5.75468 13.4957 6.50483C14.2459 7.25497 14.6673 8.27239 14.6673 9.33325V13.9999H12.0007V9.33325C12.0007 8.97963 11.8602 8.64049 11.6101 8.39044C11.3601 8.14039 11.0209 7.99992 10.6673 7.99992C10.3137 7.99992 9.97456 8.14039 9.72451 8.39044C9.47446 8.64049 9.33398 8.97963 9.33398 9.33325V13.9999H6.66732V9.33325C6.66732 8.27239 7.08874 7.25497 7.83889 6.50483C8.58904 5.75468 9.60645 5.33325 10.6673 5.33325Z" stroke="#4157FE" stroke-width="1.25" stroke-linecap="round" stroke-linejoin="round"/>
<path d="M4.00065 5.99992H1.33398V13.9999H4.00065V5.99992Z" stroke="#4157FE" stroke-width="1.25" stroke-linecap="round" stroke-linejoin="round"/>
<path d="M2.66732 3.99992C3.4037 3.99992 4.00065 3.40296 4.00065 2.66659C4.00065 1.93021 3.4037 1.33325 2.66732 1.33325C1.93094 1.33325 1.33398 1.93021 1.33398 2.66659C1.33398 3.40296 1.93094 3.99992 2.66732 3.99992Z" stroke="#4157FE" stroke-width="1.25" stroke-linecap="round" stroke-linejoin="round"/>
</svg>
