<svg width="12" height="7" viewBox="0 0 12 7" fill="none" xmlns="http://www.w3.org/2000/svg">
<path d="M3.33334 1.33333C3.14445 1.33333 2.98622 1.26933 2.85867 1.14133C2.73111 1.01333 2.66711 0.855111 2.66667 0.666667C2.66622 0.478222 2.73022 0.32 2.85867 0.192C2.98711 0.0640001 3.14534 0 3.33334 0H11.3333C11.5222 0 11.6807 0.0640001 11.8087 0.192C11.9367 0.32 12.0004 0.478222 12 0.666667C11.9996 0.855111 11.9356 1.01356 11.808 1.142C11.6804 1.27044 11.5222 1.33422 11.3333 1.33333H3.33334ZM3.33334 4C3.14445 4 2.98622 3.936 2.85867 3.808C2.73111 3.68 2.66711 3.52178 2.66667 3.33333C2.66622 3.14489 2.73022 2.98667 2.85867 2.85867C2.98711 2.73067 3.14534 2.66667 3.33334 2.66667H11.3333C11.5222 2.66667 11.6807 2.73067 11.8087 2.85867C11.9367 2.98667 12.0004 3.14489 12 3.33333C11.9996 3.52178 11.9356 3.68022 11.808 3.80867C11.6804 3.93711 11.5222 4.00089 11.3333 4H3.33334ZM3.33334 6.66667C3.14445 6.66667 2.98622 6.60267 2.85867 6.47467C2.73111 6.34667 2.66711 6.18844 2.66667 6C2.66622 5.81155 2.73022 5.65333 2.85867 5.52533C2.98711 5.39733 3.14534 5.33333 3.33334 5.33333H11.3333C11.5222 5.33333 11.6807 5.39733 11.8087 5.52533C11.9367 5.65333 12.0004 5.81155 12 6C11.9996 6.18844 11.9356 6.34689 11.808 6.47533C11.6804 6.60378 11.5222 6.66755 11.3333 6.66667H3.33334ZM0.666669 1.33333C0.47778 1.33333 0.319558 1.26933 0.192002 1.14133C0.0644468 1.01333 0.000446743 0.855111 2.29885e-06 0.666667C-0.000442146 0.478222 0.0635579 0.32 0.192002 0.192C0.320447 0.0640001 0.478669 0 0.666669 0C0.854669 0 1.01311 0.0640001 1.142 0.192C1.27089 0.32 1.33467 0.478222 1.33334 0.666667C1.332 0.855111 1.268 1.01356 1.14134 1.142C1.01467 1.27044 0.856447 1.33422 0.666669 1.33333ZM0.666669 4C0.47778 4 0.319558 3.936 0.192002 3.808C0.0644468 3.68 0.000446743 3.52178 2.29885e-06 3.33333C-0.000442146 3.14489 0.0635579 2.98667 0.192002 2.85867C0.320447 2.73067 0.478669 2.66667 0.666669 2.66667C0.854669 2.66667 1.01311 2.73067 1.142 2.85867C1.27089 2.98667 1.33467 3.14489 1.33334 3.33333C1.332 3.52178 1.268 3.68022 1.14134 3.80867C1.01467 3.93711 0.856447 4.00089 0.666669 4ZM0.666669 6.66667C0.47778 6.66667 0.319558 6.60267 0.192002 6.47467C0.0644468 6.34667 0.000446743 6.18844 2.29885e-06 6C-0.000442146 5.81155 0.0635579 5.65333 0.192002 5.52533C0.320447 5.39733 0.478669 5.33333 0.666669 5.33333C0.854669 5.33333 1.01311 5.39733 1.142 5.52533C1.27089 5.65333 1.33467 5.81155 1.33334 6C1.332 6.18844 1.268 6.34689 1.14134 6.47533C1.01467 6.60378 0.856447 6.66755 0.666669 6.66667Z" fill="#4157FE"/>
</svg>
