<svg width="14" height="14" viewBox="0 0 14 14" fill="none" xmlns="http://www.w3.org/2000/svg">
<path d="M4.59729 7.04079C4.59729 6.80163 4.79563 6.60329 5.03479 6.60329H8.23146V1.66829C8.22562 1.38829 8.00396 1.16663 7.72396 1.16663C4.28812 1.16663 1.89062 3.56413 1.89062 6.99996C1.89062 10.4358 4.28812 12.8333 7.72396 12.8333C7.99812 12.8333 8.22563 12.6116 8.22563 12.3316V7.47246H5.03479C4.78979 7.47829 4.59729 7.27996 4.59729 7.04079Z" fill="#4157FE"/>
<path d="M11.9813 6.73164L10.3246 5.06914C10.1554 4.89997 9.87544 4.89997 9.70628 5.06914C9.53711 5.2383 9.53711 5.5183 9.70628 5.68747L10.6163 6.59747H8.22461V7.47247H10.6104L9.70044 8.38247C9.53128 8.55164 9.53128 8.83164 9.70044 9.0008C9.78794 9.0883 9.89878 9.12914 10.0096 9.12914C10.1204 9.12914 10.2313 9.0883 10.3188 9.0008L11.9754 7.3383C12.1504 7.17497 12.1504 6.9008 11.9813 6.73164Z" fill="#4157FE"/>
</svg>
