<svg width="18" height="18" viewBox="0 0 18 18" fill="none" xmlns="http://www.w3.org/2000/svg">
<path d="M16.5 3.8625V5.8875C16.5 7.57501 15.825 8.25 14.1375 8.25H12.1125C10.425 8.25 9.75 7.57501 9.75 5.8875V3.8625C9.75 2.175 10.425 1.5 12.1125 1.5H14.1375C15.825 1.5 16.5 2.175 16.5 3.8625Z" stroke="#191F38" stroke-width="1.5" stroke-linecap="round" stroke-linejoin="round"/>
<path d="M8.25 12.1125V14.1375C8.25 15.825 7.575 16.5 5.8875 16.5H3.8625C2.175 16.5 1.5 15.825 1.5 14.1375V12.1125C1.5 10.425 2.175 9.75 3.8625 9.75H5.8875C7.575 9.75 8.25 10.425 8.25 12.1125Z" stroke="#191F38" stroke-width="1.5" stroke-linecap="round" stroke-linejoin="round"/>
<path d="M13.0348 8.24985V10.2148C13.0348 12.2323 12.2323 13.0349 10.2148 13.0349H8.24984V12.1123C8.24984 10.4248 7.57484 9.74985 5.88734 9.74985H4.96484V7.78485C4.96484 5.76735 5.76734 4.96484 7.78484 4.96484H9.74984V5.88735C9.74984 7.57485 10.4248 8.24985 12.1123 8.24985H13.0348Z" stroke="#191F38" stroke-width="1.5" stroke-linecap="round" stroke-linejoin="round"/>
</svg>
