<svg width="16" height="16" viewBox="0 0 16 16" fill="none" xmlns="http://www.w3.org/2000/svg">
<path d="M8.83357 14.3671C8.36691 14.7604 7.61357 14.7604 7.16024 14.3671L6.10691 13.4671C5.90691 13.3004 5.52691 13.1604 5.26024 13.1604L4.12691 13.1604C3.42024 13.1604 2.84024 12.5804 2.84024 11.8738L2.84024 10.7404C2.84024 10.4738 2.70024 10.1004 2.53357 9.90044L1.63357 8.84711C1.24024 8.38044 1.24024 7.62711 1.63357 7.17378L2.53357 6.12044C2.70024 5.92044 2.84024 5.54711 2.84024 5.28044L2.84024 4.14711C2.84024 3.44044 3.42024 2.86044 4.12691 2.86044L5.26024 2.86044C5.52691 2.86044 5.90024 2.72044 6.10024 2.55378L7.15357 1.65378C7.62024 1.26044 8.37358 1.26044 8.82691 1.65378L9.88024 2.55378C10.0802 2.72044 10.4602 2.86044 10.7202 2.86044L11.8869 2.86044C12.5936 2.86044 13.1736 3.44044 13.1736 4.14711L13.1736 5.28711C13.1736 5.54711 13.3069 5.92711 13.4736 6.12044L14.3736 7.18044C14.7602 7.64044 14.7602 8.38711 14.3736 8.84711L13.4736 9.90711C13.3069 10.1071 13.1736 10.4804 13.1736 10.7404L13.1736 11.8671C13.1736 12.5738 12.5936 13.1538 11.8869 13.1538L10.7336 13.1538C10.4669 13.1538 10.0936 13.2938 9.89357 13.4604L8.83357 14.3671Z" stroke="#697588" stroke-width="1.25" stroke-linecap="round" stroke-linejoin="round"/>
<path d="M8 10.5801L8 7.36008" stroke="#697588" stroke-width="1.25" stroke-linecap="round" stroke-linejoin="round"/>
<path d="M8.00391 5.33301L7.99792 5.33301" stroke="#697588" stroke-width="1.25" stroke-linecap="round" stroke-linejoin="round"/>
</svg>
