<svg width="30" height="30" viewBox="0 0 30 30" fill="none" xmlns="http://www.w3.org/2000/svg">
<mask id="path-1-inside-1_875_31128" fill="white">
<path d="M0 8C0 3.58172 3.58172 0 8 0H30V30H8C3.58172 30 0 26.4183 0 22V8Z"/>
</mask>
<path d="M0 8C0 3.58172 3.58172 0 8 0H30V30H8C3.58172 30 0 26.4183 0 22V8Z" fill="#4157FE"/>
<path d="M0 0H30H0ZM30 30H0H30ZM0 30V0V30ZM31 0V30H29V0H31Z" fill="#EBEBEB" mask="url(#path-1-inside-1_875_31128)"/>
<path d="M11.9588 19V10.2727H15.0696C15.7486 10.2727 16.3111 10.3963 16.7571 10.6435C17.2031 10.8906 17.5369 11.2287 17.7585 11.6577C17.9801 12.0838 18.0909 12.5639 18.0909 13.098C18.0909 13.6349 17.9787 14.1179 17.7543 14.5469C17.5327 14.973 17.1974 15.3111 16.7486 15.5611C16.3026 15.8082 15.7415 15.9318 15.0653 15.9318H12.9261V14.8153H14.946C15.375 14.8153 15.723 14.7415 15.9901 14.5938C16.2571 14.4432 16.4531 14.2386 16.5781 13.9801C16.7031 13.7216 16.7656 13.4276 16.7656 13.098C16.7656 12.7685 16.7031 12.4759 16.5781 12.2202C16.4531 11.9645 16.2557 11.7642 15.9858 11.6193C15.7188 11.4744 15.3665 11.402 14.929 11.402H13.2756V19H11.9588Z" fill="white"/>
</svg>
