<svg width="14" height="11" viewBox="0 0 14 11" fill="none" xmlns="http://www.w3.org/2000/svg">
<path d="M7.6825 0.103165C7.7525 0.0601965 7.82688 0.0322668 7.90125 0.0150793C8.00406 -0.0064051 8.11125 -0.00425666 8.20969 0.0172277C8.37812 0.0558996 8.53344 0.156876 8.63406 0.309415L11.2569 4.17231C11.4494 4.45375 11.55 4.78676 11.55 5.12621V6.70531C11.55 6.85356 11.6463 6.98461 11.7884 7.03188L13.5209 7.59906C13.8075 7.69145 14 7.95356 14 8.25004V10.3125C14 10.5252 13.8994 10.7272 13.7266 10.8582C13.5538 10.9893 13.3306 11.0323 13.1206 10.9764L9.42812 10.0096C8.20312 9.68949 7.35 8.59809 7.35 7.35199V4.81254C7.35 4.43227 7.66281 4.12504 8.05 4.12504C8.43719 4.12504 8.75 4.43227 8.75 4.81254V6.53129C8.75 6.72035 8.9075 6.87504 9.1 6.87504C9.2925 6.87504 9.45 6.72035 9.45 6.53129V4.70727C9.45 4.55688 9.41063 4.41078 9.33406 4.28188L7.44406 1.03344C7.40687 0.968985 7.38063 0.902384 7.36531 0.833634C7.34344 0.732657 7.34344 0.627384 7.3675 0.530704C7.40906 0.358829 7.51625 0.204142 7.68031 0.103165H7.6825ZM6.3175 0.103165C6.48156 0.201993 6.58875 0.358829 6.63031 0.530704C6.65438 0.629532 6.65656 0.732657 6.6325 0.833634C6.61719 0.902384 6.59094 0.968985 6.55375 1.03344L4.66594 4.28188C4.58938 4.41078 4.55 4.55902 4.55 4.70727V6.53129C4.55 6.72035 4.7075 6.87504 4.9 6.87504C5.0925 6.87504 5.25 6.72035 5.25 6.53129V4.81254C5.25 4.43227 5.56281 4.12504 5.95 4.12504C6.33719 4.12504 6.65 4.43227 6.65 4.81254V7.35199C6.65 8.59809 5.79688 9.68734 4.57188 10.0096L0.881562 10.9764C0.671562 11.0323 0.44625 10.9871 0.275625 10.8582C0.105 10.7293 0 10.5274 0 10.3125V8.25004C0 7.95356 0.1925 7.69145 0.479062 7.59692L2.21156 7.02973C2.35375 6.98246 2.45 6.85141 2.45 6.70317V5.12406C2.45 4.78461 2.55281 4.45375 2.74312 4.17016L5.36375 0.311564C5.46438 0.159025 5.61969 0.058048 5.78813 0.0193762C5.88875 -0.00425666 5.99375 -0.0064051 6.09656 0.0172277C6.17313 0.0344152 6.2475 0.0623449 6.31531 0.105314L6.3175 0.103165Z" fill="#FF9F00"/>
</svg>
