<svg width="16" height="16" viewBox="0 0 16 16" fill="none" xmlns="http://www.w3.org/2000/svg">
<path d="M16 8C16 9.7294 15.4396 11.4122 14.4027 12.7964C13.3659 14.1805 11.9084 15.1913 10.2487 15.6774C8.58907 16.1636 6.81655 16.0988 5.19679 15.4928C3.57703 14.8868 2.19725 13.7723 1.26421 12.3161C0.331164 10.86 -0.104904 9.14077 0.0213457 7.41598C0.147596 5.69119 0.829365 4.05376 1.9645 2.74903C3.09963 1.4443 4.62699 0.542543 6.31773 0.178877C8.00846 -0.184789 9.77152 0.0092208 11.3427 0.731835L9.90212 3.86417C9.00806 3.45298 8.00482 3.34258 7.04273 3.54952C6.08065 3.75645 5.21152 4.26959 4.56559 5.01202C3.91967 5.75445 3.53172 6.68621 3.45988 7.66768C3.38804 8.64914 3.63617 9.62746 4.16711 10.456C4.69804 11.2846 5.48318 11.9188 6.40488 12.2637C7.32658 12.6085 8.3352 12.6453 9.27961 12.3687C10.224 12.0921 11.0534 11.5169 11.6434 10.7293C12.2334 9.94168 12.5523 8.98409 12.5523 8H16Z" fill="#4157FE"/>
</svg>
