<svg width="16" height="21" viewBox="0 0 16 21" fill="none" xmlns="http://www.w3.org/2000/svg">
<path d="M0.5 0V21" stroke="#F8F8F8"/>
<path d="M8.51985 10.9981L2.20104 11.609L0.538266 16.9269C0.439122 17.2413 0.536378 17.585 0.786586 17.8003C1.03585 18.0155 1.38994 18.0609 1.68644 17.9164L15.5344 11.2106C15.8054 11.0784 15.9772 10.8036 15.9772 10.5024C15.9772 10.2012 15.8053 9.92645 15.5344 9.79425L1.69587 3.0836C1.39938 2.93914 1.0453 2.98446 0.796013 3.19974C0.545784 3.41503 0.448539 3.75778 0.547693 4.07221L2.21046 9.39006L8.51696 10.0019C8.7719 10.0274 8.96641 10.2417 8.96641 10.4976C8.96641 10.7535 8.77191 10.9678 8.51696 10.9933L8.51985 10.9981Z" fill="#4157FE"/>
</svg>
