<svg width="14" height="14" viewBox="0 0 14 14" fill="none" xmlns="http://www.w3.org/2000/svg">
<path d="M7 8.75C7.9665 8.75 8.75 7.9665 8.75 7C8.75 6.0335 7.9665 5.25 7 5.25C6.0335 5.25 5.25 6.0335 5.25 7C5.25 7.9665 6.0335 8.75 7 8.75Z" stroke="#A4541A" stroke-width="1.25" stroke-miterlimit="10" stroke-linecap="round" stroke-linejoin="round"/>
<path d="M1.16602 7.51333V6.48666C1.16602 5.88 1.66185 5.37833 2.27435 5.37833C3.33018 5.37833 3.76185 4.63167 3.23102 3.71583C2.92768 3.19083 3.10852 2.50833 3.63935 2.205L4.64852 1.6275C5.10935 1.35333 5.70435 1.51667 5.97852 1.9775L6.04268 2.08833C6.56768 3.00417 7.43102 3.00417 7.96185 2.08833L8.02602 1.9775C8.30018 1.51667 8.89518 1.35333 9.35602 1.6275L10.3652 2.205C10.896 2.50833 11.0768 3.19083 10.7735 3.71583C10.2427 4.63167 10.6743 5.37833 11.7302 5.37833C12.3369 5.37833 12.8385 5.87416 12.8385 6.48666V7.51333C12.8385 8.12 12.3427 8.62166 11.7302 8.62166C10.6743 8.62166 10.2427 9.36833 10.7735 10.2842C11.0768 10.815 10.896 11.4917 10.3652 11.795L9.35602 12.3725C8.89518 12.6467 8.30018 12.4833 8.02602 12.0225L7.96185 11.9117C7.43685 10.9958 6.57352 10.9958 6.04268 11.9117L5.97852 12.0225C5.70435 12.4833 5.10935 12.6467 4.64852 12.3725L3.63935 11.795C3.10852 11.4917 2.92768 10.8092 3.23102 10.2842C3.76185 9.36833 3.33018 8.62166 2.27435 8.62166C1.66185 8.62166 1.16602 8.12 1.16602 7.51333Z" stroke="#A4541A" stroke-width="1.25" stroke-miterlimit="10" stroke-linecap="round" stroke-linejoin="round"/>
</svg>
