<svg width="16" height="16" viewBox="0 0 16 16" fill="none" xmlns="http://www.w3.org/2000/svg">
<path d="M2 6.07333V9.92C2 11.3333 2 11.3333 3.33333 12.2333L7 14.3533C7.55333 14.6733 8.45333 14.6733 9 14.3533L12.6667 12.2333C14 11.3333 14 11.3333 14 9.92666V6.07333C14 4.66666 14 4.66666 12.6667 3.76666L9 1.64666C8.45333 1.32666 7.55333 1.32666 7 1.64666L3.33333 3.76666C2 4.66666 2 4.66666 2 6.07333Z" stroke="#191F38" stroke-width="1.25" stroke-linecap="round" stroke-linejoin="round"/>
<path d="M8 10C9.10457 10 10 9.10457 10 8C10 6.89543 9.10457 6 8 6C6.89543 6 6 6.89543 6 8C6 9.10457 6.89543 10 8 10Z" stroke="#191F38" stroke-width="1.25" stroke-linecap="round" stroke-linejoin="round"/>
</svg>
