<svg width="13" height="13" viewBox="0 0 13 13" fill="none" xmlns="http://www.w3.org/2000/svg">
<path d="M12.5 1.5C12.5 1.23478 12.3946 0.98043 12.2071 0.792893C12.0196 0.605357 11.7652 0.5 11.5 0.5H1.5C1.23478 0.5 0.98043 0.605357 0.792893 0.792893C0.605357 0.98043 0.5 1.23478 0.5 1.5V11.5C0.5 11.7652 0.605357 12.0196 0.792893 12.2071C0.98043 12.3946 1.23478 12.5 1.5 12.5H11.5C11.7652 12.5 12.0196 12.3946 12.2071 12.2071C12.3946 12.0196 12.5 11.7652 12.5 11.5V1.5Z" stroke="#7F899C" stroke-linejoin="round"/>
<path d="M3.83464 0.5V12.5M9.16797 5.16667L7.83464 6.5L9.16797 7.83333M5.83464 0.5H1.83464M5.83464 12.5H1.83464" stroke="#7F899C" stroke-linecap="round" stroke-linejoin="round"/>
</svg>
