<svg width="18" height="18" viewBox="0 0 18 18" fill="none" xmlns="http://www.w3.org/2000/svg">
<path d="M12.4573 15.0002C13.4623 15.0077 14.4298 14.6327 15.1723 13.9577C17.6248 11.8127 16.3123 7.50771 13.0798 7.10271C11.9248 0.0977056 1.8223 2.75271 4.2148 9.42021" stroke="#191F38" stroke-width="1.5" stroke-miterlimit="10" stroke-linecap="round" stroke-linejoin="round"/>
<path d="M5.45953 9.72713C5.06203 9.52463 4.61953 9.41963 4.17703 9.42713C0.682032 9.67463 0.689532 14.7596 4.17703 15.0071" stroke="#191F38" stroke-width="1.5" stroke-miterlimit="10" stroke-linecap="round" stroke-linejoin="round"/>
<path d="M11.8652 7.41785C12.2552 7.22285 12.6752 7.11785 13.1102 7.11035" stroke="#191F38" stroke-width="1.5" stroke-miterlimit="10" stroke-linecap="round" stroke-linejoin="round"/>
<path d="M6.92329 14.37H7.67329V16.1175C7.67329 16.3725 7.99579 16.5 8.16079 16.305L9.99829 14.2125C10.2233 13.9575 10.1258 13.7475 9.78829 13.7475H9.03829V12C9.03829 11.745 8.71579 11.6175 8.55079 11.8125L6.71329 13.905C6.48829 14.16 6.58579 14.37 6.92329 14.37Z" stroke="#191F38" stroke-width="1.5" stroke-miterlimit="10" stroke-linecap="round" stroke-linejoin="round"/>
</svg>
