<svg width="16" height="16" viewBox="0 0 16 16" fill="none" xmlns="http://www.w3.org/2000/svg">
<path d="M3.52376 6.04753H8.09505M2 3H5.04753M3.52376 3V11.3807C3.52376 11.5828 3.60403 11.7765 3.74691 11.9194C3.88979 12.0623 4.08358 12.1426 4.28564 12.1426H8.09505M8.09505 5.28564C8.09505 5.08358 8.17532 4.88979 8.3182 4.74691C8.46108 4.60403 8.65487 4.52376 8.85693 4.52376H13.4282C13.6303 4.52376 13.8241 4.60403 13.967 4.74691C14.1098 4.88979 14.1901 5.08358 14.1901 5.28564V6.80941C14.1901 7.01147 14.1098 7.20526 13.967 7.34814C13.8241 7.49102 13.6303 7.57129 13.4282 7.57129H8.85693C8.65487 7.57129 8.46108 7.49102 8.3182 7.34814C8.17532 7.20526 8.09505 7.01147 8.09505 6.80941V5.28564ZM8.09505 11.3807C8.09505 11.1786 8.17532 10.9848 8.3182 10.842C8.46108 10.6991 8.65487 10.6188 8.85693 10.6188H13.4282C13.6303 10.6188 13.8241 10.6991 13.967 10.842C14.1098 10.9848 14.1901 11.1786 14.1901 11.3807V12.9045C14.1901 13.1065 14.1098 13.3003 13.967 13.4432C13.8241 13.5861 13.6303 13.6663 13.4282 13.6663H8.85693C8.65487 13.6663 8.46108 13.5861 8.3182 13.4432C8.17532 13.3003 8.09505 13.1065 8.09505 12.9045V11.3807Z" stroke="#697588" stroke-width="1.25" stroke-linecap="round" stroke-linejoin="round"/>
</svg>
