<svg width="16" height="16" viewBox="0 0 16 16" fill="none" xmlns="http://www.w3.org/2000/svg">
<path d="M5.20605 1.95837H10.793C11.8819 1.95837 12.6759 2.28081 13.1973 2.80212C13.7186 3.32348 14.041 4.11753 14.041 5.20642V10.7933C14.041 11.8824 13.7187 12.6762 13.1973 13.1976C12.6759 13.719 11.882 14.0414 10.793 14.0414H5.20605C4.11716 14.0413 3.32312 13.719 2.80176 13.1976C2.28045 12.6762 1.95801 11.8823 1.95801 10.7933V5.20642C1.95806 4.11753 2.2804 3.32348 2.80176 2.80212C3.32312 2.28076 4.11716 1.95843 5.20605 1.95837ZM6.99609 8.70251C6.58545 8.37707 5.99621 8.37011 5.58301 8.7074L5.49805 8.78455L4.7334 9.54724C4.35865 9.38823 3.91434 9.43695 3.58301 9.7074L3.50488 9.77771C3.05129 10.2166 3.05134 10.9433 3.50488 11.3822L3.99805 11.8754V11.8744C4.22693 12.1101 4.52865 12.2054 4.79297 12.2054C5.07636 12.2054 5.36454 12.0986 5.58789 11.8754L7.08789 10.3754C7.09354 10.3697 7.09801 10.3625 7.10352 10.3568C7.09628 10.3924 7.09068 10.4285 7.08691 10.4652L7.08105 10.5804L7.08691 10.6947C7.14485 11.2599 7.62635 11.7053 8.20605 11.7054H11.7061C12.3365 11.7054 12.8308 11.1933 12.8311 10.5804C12.8311 9.96738 12.3367 9.45544 11.7061 9.45544H8.20605C7.88686 9.45553 7.59784 9.59039 7.39258 9.80603C7.46523 9.448 7.36412 9.06078 7.08789 8.78455L7.08105 8.77771L6.99609 8.70251ZM6.99609 4.0365C6.58549 3.71085 5.99631 3.70317 5.58301 4.04041L5.49805 4.11853L4.7334 4.88123C4.35866 4.72212 3.91439 4.77001 3.58301 5.04041L3.50488 5.11072C3.05118 5.54954 3.05145 6.27621 3.50488 6.71521L3.99805 7.20837V7.2074C4.22695 7.44328 4.52859 7.53844 4.79297 7.53845C5.07643 7.53845 5.36451 7.43172 5.58789 7.20837L7.08789 5.70837C7.09359 5.70267 7.09796 5.69561 7.10352 5.68982C7.0962 5.72569 7.09069 5.7622 7.08691 5.79919L7.08105 5.91345L7.08691 6.02771C7.1447 6.59302 7.62624 7.03831 8.20605 7.03845H11.7061C12.3366 7.03845 12.831 6.52649 12.8311 5.91345C12.8311 5.30038 12.3367 4.78845 11.7061 4.78845H8.20605C7.88694 4.78853 7.59783 4.9235 7.39258 5.13904C7.46511 4.7811 7.36402 4.39468 7.08789 4.11853V4.11755L7.08105 4.11072L6.99609 4.0365Z" fill="#4157FE" stroke="#4157FE" stroke-width="1.25"/>
</svg>
