<svg width="16" height="16" viewBox="0 0 16 16" fill="none" xmlns="http://www.w3.org/2000/svg">
<path d="M6.69904 1.68669L2.6857 4.30669C1.39904 5.14669 1.39904 7.02669 2.6857 7.86669L6.69904 10.4867C7.41904 10.96 8.6057 10.96 9.3257 10.4867L13.319 7.86669C14.599 7.02669 14.599 5.15336 13.319 4.31336L9.3257 1.69336C8.6057 1.21336 7.41904 1.21336 6.69904 1.68669Z" stroke="#4157FE" stroke-width="1.25" stroke-linecap="round" stroke-linejoin="round"/>
<path d="M3.75276 8.71997L3.74609 11.8466C3.74609 12.6933 4.39943 13.6 5.19943 13.8666L7.32609 14.5733C7.69276 14.6933 8.29943 14.6933 8.67276 14.5733L10.7994 13.8666C11.5994 13.6 12.2528 12.6933 12.2528 11.8466V8.7533" stroke="#4157FE" stroke-width="1.25" stroke-linecap="round" stroke-linejoin="round"/>
<path d="M14.2676 10V6" stroke="#4157FE" stroke-width="1.25" stroke-linecap="round" stroke-linejoin="round"/>
</svg>
