<svg width="20" height="20" viewBox="0 0 20 20" fill="none" xmlns="http://www.w3.org/2000/svg">
<path d="M14.1871 13.206L17.1611 16.18L16.179 17.1621L13.205 14.188C12.1357 15.0436 10.7795 15.5554 9.30454 15.5554C5.85462 15.5554 3.05469 12.7554 3.05469 9.30552C3.05469 5.8556 5.85462 3.05566 9.30454 3.05566C12.7545 3.05566 15.5544 5.8556 15.5544 9.30552C15.5544 10.7805 15.0426 12.1366 14.1871 13.206ZM12.7938 12.6907C13.643 11.8156 14.1655 10.6219 14.1655 9.30552C14.1655 6.61982 11.9902 4.44452 9.30454 4.44452C6.61884 4.44452 4.44354 6.61982 4.44354 9.30552C4.44354 11.9912 6.61884 14.1665 9.30454 14.1665C10.6209 14.1665 11.8146 13.644 12.6897 12.7948L12.7938 12.6907Z" fill="white"/>
</svg>
