<svg width="7" height="11" viewBox="0 0 7 11" fill="none" xmlns="http://www.w3.org/2000/svg">
<path d="M6.83429 3.91755C6.88896 3.86332 6.93236 3.7988 6.96197 3.72772C6.99159 3.65663 7.00684 3.58039 7.00684 3.50338C7.00684 3.42638 6.99159 3.35013 6.96197 3.27905C6.93236 3.20796 6.88896 3.14344 6.83429 3.08922L3.91762 0.172549C3.86339 0.117874 3.79887 0.0744773 3.72779 0.0448622C3.65671 0.0152472 3.58046 -1.49772e-07 3.50345 -1.53138e-07C3.42645 -1.56504e-07 3.3502 0.0152471 3.27912 0.0448622C3.20803 0.0744773 3.14352 0.117874 3.08929 0.172549L0.17262 3.08922C0.117945 3.14344 0.0745476 3.20796 0.0449327 3.27905C0.0153173 3.35013 7.04221e-05 3.42638 7.04188e-05 3.50338C7.04154e-05 3.58039 0.0153173 3.65663 0.0449327 3.72772C0.0745476 3.7988 0.117945 3.86332 0.17262 3.91755C0.226848 3.97222 0.291365 4.01562 0.36245 4.04524C0.433534 4.07485 0.509779 4.0901 0.586786 4.0901C0.663793 4.0901 0.740038 4.07485 0.811123 4.04524C0.882207 4.01562 0.946724 3.97222 1.00095 3.91755L3.50345 1.40922L6.00595 3.91755C6.06018 3.97222 6.1247 4.01562 6.19578 4.04524C6.26687 4.07485 6.34311 4.0901 6.42012 4.0901C6.49713 4.0901 6.57337 4.07485 6.64446 4.04524C6.71554 4.01562 6.78006 3.97222 6.83429 3.91755ZM3.91762 10.3342L6.83429 7.41755C6.88868 7.36316 6.93182 7.29859 6.96125 7.22753C6.99069 7.15647 7.00584 7.0803 7.00584 7.00338C7.00584 6.84804 6.94413 6.69906 6.83429 6.58922C6.7799 6.53483 6.71533 6.49168 6.64427 6.46225C6.5732 6.43281 6.49704 6.41766 6.42012 6.41766C6.26478 6.41766 6.1158 6.47937 6.00595 6.58922L3.50345 9.09755L1.00095 6.58922C0.946724 6.53454 0.882207 6.49114 0.811123 6.46153C0.740038 6.43191 0.663793 6.41667 0.586786 6.41667C0.509779 6.41667 0.433534 6.43191 0.36245 6.46153C0.291365 6.49114 0.226848 6.53454 0.17262 6.58921C0.117945 6.64344 0.0745475 6.70796 0.0449325 6.77905C0.0153171 6.85013 7.02691e-05 6.92638 7.02658e-05 7.00338C7.02624e-05 7.08039 0.0153171 7.15663 0.0449325 7.22772C0.0745474 7.2988 0.117945 7.36332 0.17262 7.41755L3.08929 10.3342C3.14351 10.3889 3.20803 10.4323 3.27912 10.4619C3.3502 10.4915 3.42645 10.5068 3.50345 10.5068C3.58046 10.5068 3.6567 10.4915 3.72779 10.4619C3.79887 10.4323 3.86339 10.3889 3.91762 10.3342Z" fill="#191F38"/>
</svg>
