<svg width="16" height="16" viewBox="0 0 16 16" fill="none" xmlns="http://www.w3.org/2000/svg">
<path d="M12 12.5734H11.4933C10.96 12.5734 10.4533 12.7801 10.08 13.1534L8.93998 14.2801C8.41998 14.7934 7.57334 14.7934 7.05334 14.2801L5.91333 13.1534C5.54 12.7801 5.02667 12.5734 4.5 12.5734H4C2.89333 12.5734 2 11.6868 2 10.5934V3.32007C2 2.22674 2.89333 1.34009 4 1.34009H12C13.1067 1.34009 14 2.22674 14 3.32007V10.5934C14 11.6801 13.1067 12.5734 12 12.5734Z" stroke="#4157FE" stroke-width="1.25" stroke-miterlimit="10" stroke-linecap="round" stroke-linejoin="round"/>
<path d="M8.00061 6.66671C8.85849 6.66671 9.55396 5.97124 9.55396 5.11336C9.55396 4.25548 8.85849 3.56006 8.00061 3.56006C7.14273 3.56006 6.44727 4.25548 6.44727 5.11336C6.44727 5.97124 7.14273 6.66671 8.00061 6.66671Z" stroke="#4157FE" stroke-width="1.25" stroke-linecap="round" stroke-linejoin="round"/>
<path d="M10.6673 10.4399C10.6673 9.2399 9.47398 8.2666 8.00065 8.2666C6.52732 8.2666 5.33398 9.2399 5.33398 10.4399" stroke="#4157FE" stroke-width="1.25" stroke-linecap="round" stroke-linejoin="round"/>
</svg>
