<svg width="16" height="16" viewBox="0 0 16 16" fill="none" xmlns="http://www.w3.org/2000/svg">
<path d="M8.00008 7.99967C9.84103 7.99967 11.3334 6.50729 11.3334 4.66634C11.3334 2.82539 9.84103 1.33301 8.00008 1.33301C6.15913 1.33301 4.66675 2.82539 4.66675 4.66634C4.66675 6.50729 6.15913 7.99967 8.00008 7.99967Z" stroke="#697588" stroke-width="1.25" stroke-linecap="round" stroke-linejoin="round"/>
<path d="M2.27344 14.6667C2.27344 12.0867 4.8401 10 8.0001 10C8.6401 10 9.26011 10.0867 9.84011 10.2467" stroke="#697588" stroke-width="1.25" stroke-linecap="round" stroke-linejoin="round"/>
<path d="M14.6666 11.9997C14.6666 12.213 14.6399 12.4197 14.5866 12.6197C14.5266 12.8863 14.4199 13.1463 14.2799 13.373C13.8199 14.1463 12.9733 14.6663 11.9999 14.6663C11.3133 14.6663 10.6932 14.4063 10.2266 13.9797C10.0266 13.8063 9.85324 13.5997 9.71991 13.373C9.47324 12.973 9.33325 12.4997 9.33325 11.9997C9.33325 11.2797 9.61992 10.6197 10.0866 10.1397C10.5733 9.63969 11.2533 9.33301 11.9999 9.33301C12.7866 9.33301 13.4999 9.67302 13.9799 10.2197C14.4066 10.693 14.6666 11.3197 14.6666 11.9997Z" stroke="#697588" stroke-width="1.25" stroke-miterlimit="10" stroke-linecap="round" stroke-linejoin="round"/>
<path d="M12.9932 11.9873H11.0066" stroke="#697588" stroke-width="1.25" stroke-miterlimit="10" stroke-linecap="round" stroke-linejoin="round"/>
<path d="M12 11.0137V13.007" stroke="#697588" stroke-width="1.25" stroke-miterlimit="10" stroke-linecap="round" stroke-linejoin="round"/>
</svg>
